<mxfile host="app.diagrams.net" modified="2024-05-14T16:29:36.506Z" agent="Mozilla/5.0 (Macintosh; Intel Mac OS X 10_15_7) AppleWebKit/537.36 (KHTML, like Gecko) Chrome/123.0.0.0 Safari/537.36" etag="UnvwdLy_MAzdl07XVdqR" version="24.4.0" type="device" pages="6">
  <diagram name="Page-1" id="7I1qMBMWab01eSXx00-t">
    <mxGraphModel dx="1141" dy="765" grid="1" gridSize="10" guides="1" tooltips="1" connect="1" arrows="1" fold="1" page="1" pageScale="1" pageWidth="850" pageHeight="1100" math="0" shadow="0">
      <root>
        <mxCell id="0" />
        <mxCell id="1" parent="0" />
        <mxCell id="lwMpOVtn4fFz1AG6VNIr-1" value="BeyoncÃ©" style="ellipse;whiteSpace=wrap;html=1;aspect=fixed;" vertex="1" parent="1">
          <mxGeometry x="80" y="140" width="80" height="80" as="geometry" />
        </mxCell>
        <mxCell id="lwMpOVtn4fFz1AG6VNIr-2" value="&lt;span style=&quot;text-align: left;&quot;&gt;Doja Cat&lt;/span&gt;" style="ellipse;whiteSpace=wrap;html=1;aspect=fixed;" vertex="1" parent="1">
          <mxGeometry x="560" y="380" width="80" height="80" as="geometry" />
        </mxCell>
        <mxCell id="lwMpOVtn4fFz1AG6VNIr-3" value="&lt;span style=&quot;text-align: left;&quot;&gt;Post Malone&lt;/span&gt;" style="ellipse;whiteSpace=wrap;html=1;aspect=fixed;" vertex="1" parent="1">
          <mxGeometry x="200" y="140" width="80" height="80" as="geometry" />
        </mxCell>
        <mxCell id="lwMpOVtn4fFz1AG6VNIr-4" value="&lt;span style=&quot;text-align: left;&quot;&gt;N/A&lt;/span&gt;" style="ellipse;whiteSpace=wrap;html=1;aspect=fixed;" vertex="1" parent="1">
          <mxGeometry x="440" y="380" width="80" height="80" as="geometry" />
        </mxCell>
        <mxCell id="lwMpOVtn4fFz1AG6VNIr-5" value="&lt;span style=&quot;text-align: left;&quot;&gt;Ed Sheeran&lt;/span&gt;" style="ellipse;whiteSpace=wrap;html=1;aspect=fixed;" vertex="1" parent="1">
          <mxGeometry x="320" y="380" width="80" height="80" as="geometry" />
        </mxCell>
        <mxCell id="lwMpOVtn4fFz1AG6VNIr-6" value="&lt;span style=&quot;text-align: left;&quot;&gt;The Weeknd&lt;/span&gt;" style="ellipse;whiteSpace=wrap;html=1;aspect=fixed;" vertex="1" parent="1">
          <mxGeometry x="200" y="380" width="80" height="80" as="geometry" />
        </mxCell>
        <mxCell id="lwMpOVtn4fFz1AG6VNIr-7" value="&lt;span style=&quot;text-align: left;&quot;&gt;Lana Del Rey&lt;/span&gt;" style="ellipse;whiteSpace=wrap;html=1;aspect=fixed;" vertex="1" parent="1">
          <mxGeometry x="80" y="380" width="80" height="80" as="geometry" />
        </mxCell>
        <mxCell id="lwMpOVtn4fFz1AG6VNIr-8" value="&lt;span style=&quot;text-align: left;&quot;&gt;Miley Cyrus&lt;/span&gt;" style="ellipse;whiteSpace=wrap;html=1;aspect=fixed;" vertex="1" parent="1">
          <mxGeometry x="680" y="260" width="80" height="80" as="geometry" />
        </mxCell>
        <mxCell id="lwMpOVtn4fFz1AG6VNIr-9" value="&lt;span style=&quot;text-align: left;&quot;&gt;Ariana Grande&lt;/span&gt;" style="ellipse;whiteSpace=wrap;html=1;aspect=fixed;" vertex="1" parent="1">
          <mxGeometry x="560" y="260" width="80" height="80" as="geometry" />
        </mxCell>
        <mxCell id="lwMpOVtn4fFz1AG6VNIr-10" value="&lt;span style=&quot;text-align: left;&quot;&gt;Anderson Paak&lt;/span&gt;" style="ellipse;whiteSpace=wrap;html=1;aspect=fixed;" vertex="1" parent="1">
          <mxGeometry x="440" y="260" width="80" height="80" as="geometry" />
        </mxCell>
        <mxCell id="lwMpOVtn4fFz1AG6VNIr-11" value="&lt;span style=&quot;text-align: left;&quot;&gt;Bruno Mars&lt;/span&gt;" style="ellipse;whiteSpace=wrap;html=1;aspect=fixed;" vertex="1" parent="1">
          <mxGeometry x="320" y="260" width="80" height="80" as="geometry" />
        </mxCell>
        <mxCell id="lwMpOVtn4fFz1AG6VNIr-12" value="&lt;span style=&quot;text-align: left;&quot;&gt;21 Savage&lt;/span&gt;" style="ellipse;whiteSpace=wrap;html=1;aspect=fixed;" vertex="1" parent="1">
          <mxGeometry x="200" y="260" width="80" height="80" as="geometry" />
        </mxCell>
        <mxCell id="lwMpOVtn4fFz1AG6VNIr-13" value="&lt;span style=&quot;text-align: left;&quot;&gt;Shakira&lt;/span&gt;" style="ellipse;whiteSpace=wrap;html=1;aspect=fixed;" vertex="1" parent="1">
          <mxGeometry x="80" y="260" width="80" height="80" as="geometry" />
        </mxCell>
        <mxCell id="lwMpOVtn4fFz1AG6VNIr-14" value="&lt;span style=&quot;text-align: left;&quot;&gt;Rihanna&lt;/span&gt;" style="ellipse;whiteSpace=wrap;html=1;aspect=fixed;" vertex="1" parent="1">
          <mxGeometry x="680" y="140" width="80" height="80" as="geometry" />
        </mxCell>
        <mxCell id="lwMpOVtn4fFz1AG6VNIr-15" value="&lt;span style=&quot;text-align: left;&quot;&gt;Camila Cabello&lt;/span&gt;" style="ellipse;whiteSpace=wrap;html=1;aspect=fixed;" vertex="1" parent="1">
          <mxGeometry x="560" y="140" width="80" height="80" as="geometry" />
        </mxCell>
        <mxCell id="lwMpOVtn4fFz1AG6VNIr-16" value="&lt;span style=&quot;text-align: left;&quot;&gt;Eminem&lt;/span&gt;" style="ellipse;whiteSpace=wrap;html=1;aspect=fixed;" vertex="1" parent="1">
          <mxGeometry x="440" y="140" width="80" height="80" as="geometry" />
        </mxCell>
        <mxCell id="lwMpOVtn4fFz1AG6VNIr-17" value="&lt;span style=&quot;text-align: left;&quot;&gt;Shawn Mendes&lt;/span&gt;" style="ellipse;whiteSpace=wrap;html=1;aspect=fixed;" vertex="1" parent="1">
          <mxGeometry x="320" y="140" width="80" height="80" as="geometry" />
        </mxCell>
        <mxCell id="lwMpOVtn4fFz1AG6VNIr-18" value="1" style="ellipse;whiteSpace=wrap;html=1;aspect=fixed;" vertex="1" parent="1">
          <mxGeometry x="110" y="140" width="20" height="20" as="geometry" />
        </mxCell>
        <mxCell id="lwMpOVtn4fFz1AG6VNIr-19" value="3" style="ellipse;whiteSpace=wrap;html=1;aspect=fixed;" vertex="1" parent="1">
          <mxGeometry x="350" y="140" width="20" height="20" as="geometry" />
        </mxCell>
        <mxCell id="lwMpOVtn4fFz1AG6VNIr-20" value="4" style="ellipse;whiteSpace=wrap;html=1;aspect=fixed;" vertex="1" parent="1">
          <mxGeometry x="470" y="140" width="20" height="20" as="geometry" />
        </mxCell>
        <mxCell id="lwMpOVtn4fFz1AG6VNIr-21" value="5" style="ellipse;whiteSpace=wrap;html=1;aspect=fixed;" vertex="1" parent="1">
          <mxGeometry x="590" y="140" width="20" height="20" as="geometry" />
        </mxCell>
        <mxCell id="lwMpOVtn4fFz1AG6VNIr-22" value="6" style="ellipse;whiteSpace=wrap;html=1;aspect=fixed;" vertex="1" parent="1">
          <mxGeometry x="710" y="140" width="20" height="20" as="geometry" />
        </mxCell>
        <mxCell id="lwMpOVtn4fFz1AG6VNIr-23" value="7" style="ellipse;whiteSpace=wrap;html=1;aspect=fixed;" vertex="1" parent="1">
          <mxGeometry x="110" y="260" width="20" height="20" as="geometry" />
        </mxCell>
        <mxCell id="lwMpOVtn4fFz1AG6VNIr-24" value="8" style="ellipse;whiteSpace=wrap;html=1;aspect=fixed;" vertex="1" parent="1">
          <mxGeometry x="230" y="260" width="20" height="20" as="geometry" />
        </mxCell>
        <mxCell id="lwMpOVtn4fFz1AG6VNIr-25" value="9" style="ellipse;whiteSpace=wrap;html=1;aspect=fixed;" vertex="1" parent="1">
          <mxGeometry x="350" y="260" width="20" height="20" as="geometry" />
        </mxCell>
        <mxCell id="lwMpOVtn4fFz1AG6VNIr-26" value="10" style="ellipse;whiteSpace=wrap;html=1;aspect=fixed;" vertex="1" parent="1">
          <mxGeometry x="470" y="260" width="20" height="20" as="geometry" />
        </mxCell>
        <mxCell id="lwMpOVtn4fFz1AG6VNIr-27" value="11" style="ellipse;whiteSpace=wrap;html=1;aspect=fixed;" vertex="1" parent="1">
          <mxGeometry x="590" y="260" width="20" height="20" as="geometry" />
        </mxCell>
        <mxCell id="lwMpOVtn4fFz1AG6VNIr-28" value="12" style="ellipse;whiteSpace=wrap;html=1;aspect=fixed;" vertex="1" parent="1">
          <mxGeometry x="710" y="260" width="20" height="20" as="geometry" />
        </mxCell>
        <mxCell id="lwMpOVtn4fFz1AG6VNIr-29" value="13" style="ellipse;whiteSpace=wrap;html=1;aspect=fixed;" vertex="1" parent="1">
          <mxGeometry x="110" y="380" width="20" height="20" as="geometry" />
        </mxCell>
        <mxCell id="lwMpOVtn4fFz1AG6VNIr-30" value="14" style="ellipse;whiteSpace=wrap;html=1;aspect=fixed;" vertex="1" parent="1">
          <mxGeometry x="230" y="380" width="20" height="20" as="geometry" />
        </mxCell>
        <mxCell id="lwMpOVtn4fFz1AG6VNIr-31" value="15" style="ellipse;whiteSpace=wrap;html=1;aspect=fixed;" vertex="1" parent="1">
          <mxGeometry x="350" y="380" width="20" height="20" as="geometry" />
        </mxCell>
        <mxCell id="lwMpOVtn4fFz1AG6VNIr-32" value="16" style="ellipse;whiteSpace=wrap;html=1;aspect=fixed;" vertex="1" parent="1">
          <mxGeometry x="470" y="380" width="20" height="20" as="geometry" />
        </mxCell>
        <mxCell id="lwMpOVtn4fFz1AG6VNIr-33" value="17" style="ellipse;whiteSpace=wrap;html=1;aspect=fixed;" vertex="1" parent="1">
          <mxGeometry x="590" y="380" width="20" height="20" as="geometry" />
        </mxCell>
        <mxCell id="lwMpOVtn4fFz1AG6VNIr-40" value="2" style="ellipse;whiteSpace=wrap;html=1;aspect=fixed;" vertex="1" parent="1">
          <mxGeometry x="230" y="140" width="20" height="20" as="geometry" />
        </mxCell>
        <mxCell id="wsotTmH68U19cV-EWrTf-1" value="&lt;b&gt;&lt;font style=&quot;font-size: 20px;&quot;&gt;Artists&lt;/font&gt;&lt;/b&gt;" style="text;html=1;align=center;verticalAlign=middle;whiteSpace=wrap;rounded=0;" vertex="1" parent="1">
          <mxGeometry x="395" y="80" width="60" height="30" as="geometry" />
        </mxCell>
      </root>
    </mxGraphModel>
  </diagram>
  <diagram id="EtxIrlnS0Fi-NfYrtBI7" name="Page-2">
    <mxGraphModel dx="1141" dy="765" grid="1" gridSize="10" guides="1" tooltips="1" connect="1" arrows="1" fold="1" page="1" pageScale="1" pageWidth="850" pageHeight="1100" math="0" shadow="0">
      <root>
        <mxCell id="0" />
        <mxCell id="1" parent="0" />
        <mxCell id="ZS_uvyxzxIyZF_OZ42_g-1" value="&lt;div&gt;&lt;span style=&quot;text-align: left;&quot;&gt;&lt;br&gt;&lt;/span&gt;&lt;/div&gt;&lt;span style=&quot;text-align: left;&quot;&gt;Beautiful Liar&lt;/span&gt;" style="rounded=0;whiteSpace=wrap;html=1;" vertex="1" parent="1">
          <mxGeometry x="40" y="120" width="120" height="60" as="geometry" />
        </mxCell>
        <mxCell id="ZS_uvyxzxIyZF_OZ42_g-3" value="&lt;div&gt;&lt;br&gt;&lt;/div&gt;&lt;div&gt;&lt;span style=&quot;text-align: left;&quot;&gt;Do not Go Yet&lt;/span&gt;&lt;br&gt;&lt;/div&gt;" style="rounded=0;whiteSpace=wrap;html=1;" vertex="1" parent="1">
          <mxGeometry x="680" y="220" width="120" height="60" as="geometry" />
        </mxCell>
        <mxCell id="ZS_uvyxzxIyZF_OZ42_g-4" value="&lt;div&gt;&lt;span style=&quot;text-align: left;&quot;&gt;&lt;br&gt;&lt;/span&gt;&lt;/div&gt;&lt;span style=&quot;text-align: left;&quot;&gt;Rockstar&lt;/span&gt;" style="rounded=0;whiteSpace=wrap;html=1;" vertex="1" parent="1">
          <mxGeometry x="200" y="120" width="120" height="60" as="geometry" />
        </mxCell>
        <mxCell id="ZS_uvyxzxIyZF_OZ42_g-5" value="&lt;div&gt;&lt;br&gt;&lt;/div&gt;&lt;div&gt;&lt;span style=&quot;text-align: left;&quot;&gt;You Right&lt;/span&gt;&lt;br&gt;&lt;/div&gt;" style="rounded=0;whiteSpace=wrap;html=1;" vertex="1" parent="1">
          <mxGeometry x="520" y="220" width="120" height="60" as="geometry" />
        </mxCell>
        <mxCell id="ZS_uvyxzxIyZF_OZ42_g-6" value="&lt;div&gt;&lt;br&gt;&lt;/div&gt;&lt;div&gt;&lt;span style=&quot;text-align: left;&quot;&gt;Bad Habits&lt;/span&gt;&lt;br&gt;&lt;/div&gt;" style="rounded=0;whiteSpace=wrap;html=1;" vertex="1" parent="1">
          <mxGeometry x="360" y="220" width="120" height="60" as="geometry" />
        </mxCell>
        <mxCell id="ZS_uvyxzxIyZF_OZ42_g-7" value="&lt;div&gt;&lt;br&gt;&lt;/div&gt;&lt;div&gt;&lt;span style=&quot;text-align: left;&quot;&gt;Save Your Tears&lt;/span&gt;&lt;br&gt;&lt;/div&gt;" style="rounded=0;whiteSpace=wrap;html=1;" vertex="1" parent="1">
          <mxGeometry x="200" y="220" width="120" height="60" as="geometry" />
        </mxCell>
        <mxCell id="ZS_uvyxzxIyZF_OZ42_g-8" value="&lt;div&gt;&lt;br&gt;&lt;/div&gt;&lt;div&gt;&lt;span style=&quot;text-align: left;&quot;&gt;Do not Call Me Angel&#39;&lt;/span&gt;&lt;br&gt;&lt;/div&gt;" style="rounded=0;whiteSpace=wrap;html=1;" vertex="1" parent="1">
          <mxGeometry x="40" y="220" width="120" height="60" as="geometry" />
        </mxCell>
        <mxCell id="ZS_uvyxzxIyZF_OZ42_g-9" value="&lt;div&gt;&lt;br&gt;&lt;/div&gt;&lt;div&gt;&lt;span style=&quot;text-align: left;&quot;&gt;Leave The Door Open&lt;/span&gt;&lt;br&gt;&lt;/div&gt;" style="rounded=0;whiteSpace=wrap;html=1;" vertex="1" parent="1">
          <mxGeometry x="680" y="120" width="120" height="60" as="geometry" />
        </mxCell>
        <mxCell id="ZS_uvyxzxIyZF_OZ42_g-10" value="&lt;div&gt;&lt;span style=&quot;text-align: left;&quot;&gt;&lt;br&gt;&lt;/span&gt;&lt;/div&gt;&lt;span style=&quot;text-align: left;&quot;&gt;Love The Way You Lie&lt;/span&gt;" style="rounded=0;whiteSpace=wrap;html=1;" vertex="1" parent="1">
          <mxGeometry x="520" y="120" width="120" height="60" as="geometry" />
        </mxCell>
        <mxCell id="ZS_uvyxzxIyZF_OZ42_g-11" value="&lt;div&gt;&lt;span style=&quot;text-align: left;&quot;&gt;&lt;br&gt;&lt;/span&gt;&lt;/div&gt;&lt;span style=&quot;text-align: left;&quot;&gt;Senorita&lt;/span&gt;" style="rounded=0;whiteSpace=wrap;html=1;" vertex="1" parent="1">
          <mxGeometry x="360" y="120" width="120" height="60" as="geometry" />
        </mxCell>
        <mxCell id="ZS_uvyxzxIyZF_OZ42_g-12" value="1" style="rounded=0;whiteSpace=wrap;html=1;" vertex="1" parent="1">
          <mxGeometry x="85" y="120" width="30" height="20" as="geometry" />
        </mxCell>
        <mxCell id="ZS_uvyxzxIyZF_OZ42_g-14" value="2" style="rounded=0;whiteSpace=wrap;html=1;" vertex="1" parent="1">
          <mxGeometry x="245" y="120" width="30" height="20" as="geometry" />
        </mxCell>
        <mxCell id="ZS_uvyxzxIyZF_OZ42_g-15" value="3" style="rounded=0;whiteSpace=wrap;html=1;" vertex="1" parent="1">
          <mxGeometry x="405" y="120" width="30" height="20" as="geometry" />
        </mxCell>
        <mxCell id="ZS_uvyxzxIyZF_OZ42_g-16" value="4" style="rounded=0;whiteSpace=wrap;html=1;" vertex="1" parent="1">
          <mxGeometry x="565" y="120" width="30" height="20" as="geometry" />
        </mxCell>
        <mxCell id="ZS_uvyxzxIyZF_OZ42_g-17" value="5" style="rounded=0;whiteSpace=wrap;html=1;" vertex="1" parent="1">
          <mxGeometry x="725" y="120" width="30" height="20" as="geometry" />
        </mxCell>
        <mxCell id="ZS_uvyxzxIyZF_OZ42_g-18" value="6" style="rounded=0;whiteSpace=wrap;html=1;" vertex="1" parent="1">
          <mxGeometry x="85" y="220" width="30" height="20" as="geometry" />
        </mxCell>
        <mxCell id="ZS_uvyxzxIyZF_OZ42_g-19" value="7" style="rounded=0;whiteSpace=wrap;html=1;" vertex="1" parent="1">
          <mxGeometry x="245" y="220" width="30" height="20" as="geometry" />
        </mxCell>
        <mxCell id="ZS_uvyxzxIyZF_OZ42_g-20" value="8" style="rounded=0;whiteSpace=wrap;html=1;" vertex="1" parent="1">
          <mxGeometry x="405" y="220" width="30" height="20" as="geometry" />
        </mxCell>
        <mxCell id="ZS_uvyxzxIyZF_OZ42_g-21" value="9" style="rounded=0;whiteSpace=wrap;html=1;" vertex="1" parent="1">
          <mxGeometry x="565" y="220" width="30" height="20" as="geometry" />
        </mxCell>
        <mxCell id="ZS_uvyxzxIyZF_OZ42_g-22" value="10" style="rounded=0;whiteSpace=wrap;html=1;" vertex="1" parent="1">
          <mxGeometry x="725" y="220" width="30" height="20" as="geometry" />
        </mxCell>
        <mxCell id="ZS_uvyxzxIyZF_OZ42_g-23" value="&lt;b&gt;&lt;font style=&quot;font-size: 20px;&quot;&gt;Songs&lt;/font&gt;&lt;/b&gt;" style="text;html=1;align=center;verticalAlign=middle;whiteSpace=wrap;rounded=0;" vertex="1" parent="1">
          <mxGeometry x="390" y="50" width="60" height="30" as="geometry" />
        </mxCell>
      </root>
    </mxGraphModel>
  </diagram>
  <diagram id="P8KI76stsj6u3iX598NN" name="Page-3">
    <mxGraphModel dx="1141" dy="765" grid="1" gridSize="10" guides="1" tooltips="1" connect="1" arrows="1" fold="1" page="1" pageScale="1" pageWidth="850" pageHeight="1100" math="0" shadow="0">
      <root>
        <mxCell id="0" />
        <mxCell id="1" parent="0" />
        <mxCell id="OisS_T35Y5048M_Joq0b-2" value="&lt;span style=&quot;text-align: left;&quot;&gt;Single release&lt;/span&gt;" style="shape=hexagon;perimeter=hexagonPerimeter2;whiteSpace=wrap;html=1;fixedSize=1;" vertex="1" parent="1">
          <mxGeometry x="365" y="260" width="120" height="80" as="geometry" />
        </mxCell>
        <mxCell id="OisS_T35Y5048M_Joq0b-3" value="&lt;span style=&quot;text-align: left;&quot;&gt;Single release&lt;/span&gt;" style="shape=hexagon;perimeter=hexagonPerimeter2;whiteSpace=wrap;html=1;fixedSize=1;" vertex="1" parent="1">
          <mxGeometry x="680" y="260" width="120" height="80" as="geometry" />
        </mxCell>
        <mxCell id="OisS_T35Y5048M_Joq0b-4" value="&lt;span style=&quot;text-align: left;&quot;&gt;Planet Her&lt;/span&gt;" style="shape=hexagon;perimeter=hexagonPerimeter2;whiteSpace=wrap;html=1;fixedSize=1;" vertex="1" parent="1">
          <mxGeometry x="520" y="260" width="120" height="80" as="geometry" />
        </mxCell>
        <mxCell id="OisS_T35Y5048M_Joq0b-5" value="&lt;span style=&quot;text-align: left;&quot;&gt;After Hours&lt;/span&gt;" style="shape=hexagon;perimeter=hexagonPerimeter2;whiteSpace=wrap;html=1;fixedSize=1;" vertex="1" parent="1">
          <mxGeometry x="210" y="260" width="120" height="80" as="geometry" />
        </mxCell>
        <mxCell id="OisS_T35Y5048M_Joq0b-6" value="&lt;span style=&quot;text-align: left;&quot;&gt;Charlies Angels&lt;/span&gt;" style="shape=hexagon;perimeter=hexagonPerimeter2;whiteSpace=wrap;html=1;fixedSize=1;" vertex="1" parent="1">
          <mxGeometry x="50" y="260" width="120" height="80" as="geometry" />
        </mxCell>
        <mxCell id="OisS_T35Y5048M_Joq0b-7" value="&lt;span style=&quot;text-align: left;&quot;&gt;An Evening with Silk Sonic&lt;/span&gt;" style="shape=hexagon;perimeter=hexagonPerimeter2;whiteSpace=wrap;html=1;fixedSize=1;" vertex="1" parent="1">
          <mxGeometry x="680" y="140" width="120" height="80" as="geometry" />
        </mxCell>
        <mxCell id="OisS_T35Y5048M_Joq0b-8" value="&lt;span style=&quot;text-align: left;&quot;&gt;Recovery&lt;/span&gt;" style="shape=hexagon;perimeter=hexagonPerimeter2;whiteSpace=wrap;html=1;fixedSize=1;" vertex="1" parent="1">
          <mxGeometry x="520" y="140" width="120" height="80" as="geometry" />
        </mxCell>
        <mxCell id="OisS_T35Y5048M_Joq0b-9" value="&lt;span style=&quot;text-align: left;&quot;&gt;Single release&lt;/span&gt;" style="shape=hexagon;perimeter=hexagonPerimeter2;whiteSpace=wrap;html=1;fixedSize=1;" vertex="1" parent="1">
          <mxGeometry x="365" y="140" width="120" height="80" as="geometry" />
        </mxCell>
        <mxCell id="OisS_T35Y5048M_Joq0b-10" value="&lt;span style=&quot;text-align: left;&quot;&gt;Beerbongs &amp;amp; Bentleys&lt;/span&gt;" style="shape=hexagon;perimeter=hexagonPerimeter2;whiteSpace=wrap;html=1;fixedSize=1;" vertex="1" parent="1">
          <mxGeometry x="210" y="140" width="120" height="80" as="geometry" />
        </mxCell>
        <mxCell id="OisS_T35Y5048M_Joq0b-11" value="&lt;span style=&quot;text-align: left;&quot;&gt;BDay Deluxe Edition&lt;/span&gt;" style="shape=hexagon;perimeter=hexagonPerimeter2;whiteSpace=wrap;html=1;fixedSize=1;" vertex="1" parent="1">
          <mxGeometry x="50" y="140" width="120" height="80" as="geometry" />
        </mxCell>
        <mxCell id="9lHjHeS13iPPWJRmYquz-1" value="&lt;b&gt;&lt;font style=&quot;font-size: 20px;&quot;&gt;Albums&lt;/font&gt;&lt;/b&gt;" style="text;html=1;align=center;verticalAlign=middle;whiteSpace=wrap;rounded=0;" vertex="1" parent="1">
          <mxGeometry x="395" y="80" width="60" height="30" as="geometry" />
        </mxCell>
        <mxCell id="9lHjHeS13iPPWJRmYquz-2" value="1" style="shape=hexagon;perimeter=hexagonPerimeter2;whiteSpace=wrap;html=1;fixedSize=1;size=10;" vertex="1" parent="1">
          <mxGeometry x="95" y="140" width="30" height="20" as="geometry" />
        </mxCell>
        <mxCell id="9lHjHeS13iPPWJRmYquz-3" value="4" style="shape=hexagon;perimeter=hexagonPerimeter2;whiteSpace=wrap;html=1;fixedSize=1;size=10;" vertex="1" parent="1">
          <mxGeometry x="565" y="140" width="30" height="20" as="geometry" />
        </mxCell>
        <mxCell id="9lHjHeS13iPPWJRmYquz-4" value="3" style="shape=hexagon;perimeter=hexagonPerimeter2;whiteSpace=wrap;html=1;fixedSize=1;size=10;" vertex="1" parent="1">
          <mxGeometry x="410" y="140" width="30" height="20" as="geometry" />
        </mxCell>
        <mxCell id="9lHjHeS13iPPWJRmYquz-5" value="2" style="shape=hexagon;perimeter=hexagonPerimeter2;whiteSpace=wrap;html=1;fixedSize=1;size=10;" vertex="1" parent="1">
          <mxGeometry x="255" y="140" width="30" height="20" as="geometry" />
        </mxCell>
        <mxCell id="9lHjHeS13iPPWJRmYquz-6" value="5" style="shape=hexagon;perimeter=hexagonPerimeter2;whiteSpace=wrap;html=1;fixedSize=1;size=10;" vertex="1" parent="1">
          <mxGeometry x="725" y="140" width="30" height="20" as="geometry" />
        </mxCell>
        <mxCell id="9lHjHeS13iPPWJRmYquz-7" value="6" style="shape=hexagon;perimeter=hexagonPerimeter2;whiteSpace=wrap;html=1;fixedSize=1;size=10;" vertex="1" parent="1">
          <mxGeometry x="95" y="260" width="30" height="20" as="geometry" />
        </mxCell>
        <mxCell id="9lHjHeS13iPPWJRmYquz-8" value="7" style="shape=hexagon;perimeter=hexagonPerimeter2;whiteSpace=wrap;html=1;fixedSize=1;size=10;" vertex="1" parent="1">
          <mxGeometry x="255" y="260" width="30" height="20" as="geometry" />
        </mxCell>
        <mxCell id="9lHjHeS13iPPWJRmYquz-9" value="8" style="shape=hexagon;perimeter=hexagonPerimeter2;whiteSpace=wrap;html=1;fixedSize=1;size=10;" vertex="1" parent="1">
          <mxGeometry x="410" y="260" width="30" height="20" as="geometry" />
        </mxCell>
        <mxCell id="9lHjHeS13iPPWJRmYquz-10" value="9" style="shape=hexagon;perimeter=hexagonPerimeter2;whiteSpace=wrap;html=1;fixedSize=1;size=10;" vertex="1" parent="1">
          <mxGeometry x="565" y="260" width="30" height="20" as="geometry" />
        </mxCell>
        <mxCell id="9lHjHeS13iPPWJRmYquz-11" value="10" style="shape=hexagon;perimeter=hexagonPerimeter2;whiteSpace=wrap;html=1;fixedSize=1;size=10;" vertex="1" parent="1">
          <mxGeometry x="725" y="260" width="30" height="20" as="geometry" />
        </mxCell>
      </root>
    </mxGraphModel>
  </diagram>
  <diagram id="sLsgimCMvQ5HUJF5IvKr" name="Page-4">
    <mxGraphModel dx="1201" dy="805" grid="1" gridSize="10" guides="1" tooltips="1" connect="1" arrows="1" fold="1" page="1" pageScale="1" pageWidth="850" pageHeight="1100" math="0" shadow="0">
      <root>
        <mxCell id="0" />
        <mxCell id="1" parent="0" />
        <mxCell id="VKI-T3KlgjcSNsJiT-jE-1" value="&lt;b&gt;&lt;font style=&quot;font-size: 20px;&quot;&gt;Featuring&lt;/font&gt;&lt;/b&gt;" style="text;html=1;align=center;verticalAlign=middle;whiteSpace=wrap;rounded=0;" vertex="1" parent="1">
          <mxGeometry x="350" y="60" width="105" height="30" as="geometry" />
        </mxCell>
        <mxCell id="v7ccYKFeEBCUr6x54TsF-35" style="edgeStyle=orthogonalEdgeStyle;rounded=0;orthogonalLoop=1;jettySize=auto;html=1;entryX=0.5;entryY=0;entryDx=0;entryDy=0;" edge="1" parent="1" source="v7ccYKFeEBCUr6x54TsF-1" target="v7ccYKFeEBCUr6x54TsF-23">
          <mxGeometry relative="1" as="geometry" />
        </mxCell>
        <mxCell id="v7ccYKFeEBCUr6x54TsF-1" value="BeyoncÃ©" style="ellipse;whiteSpace=wrap;html=1;aspect=fixed;" vertex="1" parent="1">
          <mxGeometry x="80" y="140" width="80" height="80" as="geometry" />
        </mxCell>
        <mxCell id="v7ccYKFeEBCUr6x54TsF-2" value="&lt;span style=&quot;text-align: left;&quot;&gt;Doja Cat&lt;/span&gt;" style="ellipse;whiteSpace=wrap;html=1;aspect=fixed;" vertex="1" parent="1">
          <mxGeometry x="480" y="400" width="80" height="80" as="geometry" />
        </mxCell>
        <mxCell id="v7ccYKFeEBCUr6x54TsF-3" value="&lt;span style=&quot;text-align: left;&quot;&gt;Post Malone&lt;/span&gt;" style="ellipse;whiteSpace=wrap;html=1;aspect=fixed;" vertex="1" parent="1">
          <mxGeometry x="200" y="140" width="80" height="80" as="geometry" />
        </mxCell>
        <mxCell id="v7ccYKFeEBCUr6x54TsF-4" value="&lt;span style=&quot;text-align: left;&quot;&gt;N/A&lt;/span&gt;" style="ellipse;whiteSpace=wrap;html=1;aspect=fixed;" vertex="1" parent="1">
          <mxGeometry x="330" y="380" width="80" height="80" as="geometry" />
        </mxCell>
        <mxCell id="v7ccYKFeEBCUr6x54TsF-45" style="edgeStyle=orthogonalEdgeStyle;rounded=0;orthogonalLoop=1;jettySize=auto;html=1;entryX=0;entryY=0.5;entryDx=0;entryDy=0;" edge="1" parent="1" source="v7ccYKFeEBCUr6x54TsF-5" target="v7ccYKFeEBCUr6x54TsF-4">
          <mxGeometry relative="1" as="geometry" />
        </mxCell>
        <mxCell id="v7ccYKFeEBCUr6x54TsF-5" value="&lt;span style=&quot;text-align: left;&quot;&gt;Ed Sheeran&lt;/span&gt;" style="ellipse;whiteSpace=wrap;html=1;aspect=fixed;" vertex="1" parent="1">
          <mxGeometry x="90" y="380" width="80" height="80" as="geometry" />
        </mxCell>
        <mxCell id="v7ccYKFeEBCUr6x54TsF-6" value="&lt;span style=&quot;text-align: left;&quot;&gt;The Weeknd&lt;/span&gt;" style="ellipse;whiteSpace=wrap;html=1;aspect=fixed;" vertex="1" parent="1">
          <mxGeometry x="280" y="610" width="80" height="80" as="geometry" />
        </mxCell>
        <mxCell id="v7ccYKFeEBCUr6x54TsF-7" value="&lt;span style=&quot;text-align: left;&quot;&gt;Lana Del Rey&lt;/span&gt;" style="ellipse;whiteSpace=wrap;html=1;aspect=fixed;" vertex="1" parent="1">
          <mxGeometry x="490" y="530" width="80" height="80" as="geometry" />
        </mxCell>
        <mxCell id="v7ccYKFeEBCUr6x54TsF-8" value="&lt;span style=&quot;text-align: left;&quot;&gt;Miley Cyrus&lt;/span&gt;" style="ellipse;whiteSpace=wrap;html=1;aspect=fixed;" vertex="1" parent="1">
          <mxGeometry x="650" y="400" width="80" height="80" as="geometry" />
        </mxCell>
        <mxCell id="v7ccYKFeEBCUr6x54TsF-41" style="edgeStyle=orthogonalEdgeStyle;rounded=0;orthogonalLoop=1;jettySize=auto;html=1;entryX=0.5;entryY=1;entryDx=0;entryDy=0;" edge="1" parent="1" source="v7ccYKFeEBCUr6x54TsF-9" target="v7ccYKFeEBCUr6x54TsF-8">
          <mxGeometry relative="1" as="geometry" />
        </mxCell>
        <mxCell id="v7ccYKFeEBCUr6x54TsF-9" value="&lt;span style=&quot;text-align: left;&quot;&gt;Ariana Grande&lt;/span&gt;" style="ellipse;whiteSpace=wrap;html=1;aspect=fixed;" vertex="1" parent="1">
          <mxGeometry x="650" y="610" width="80" height="80" as="geometry" />
        </mxCell>
        <mxCell id="v7ccYKFeEBCUr6x54TsF-10" value="&lt;span style=&quot;text-align: left;&quot;&gt;Anderson Paak&lt;/span&gt;" style="ellipse;whiteSpace=wrap;html=1;aspect=fixed;" vertex="1" parent="1">
          <mxGeometry x="320" y="260" width="80" height="80" as="geometry" />
        </mxCell>
        <mxCell id="v7ccYKFeEBCUr6x54TsF-40" style="edgeStyle=orthogonalEdgeStyle;rounded=0;orthogonalLoop=1;jettySize=auto;html=1;entryX=0.5;entryY=0;entryDx=0;entryDy=0;" edge="1" parent="1" source="v7ccYKFeEBCUr6x54TsF-11" target="v7ccYKFeEBCUr6x54TsF-10">
          <mxGeometry relative="1" as="geometry" />
        </mxCell>
        <mxCell id="v7ccYKFeEBCUr6x54TsF-11" value="&lt;span style=&quot;text-align: left;&quot;&gt;Bruno Mars&lt;/span&gt;" style="ellipse;whiteSpace=wrap;html=1;aspect=fixed;" vertex="1" parent="1">
          <mxGeometry x="320" y="140" width="80" height="80" as="geometry" />
        </mxCell>
        <mxCell id="v7ccYKFeEBCUr6x54TsF-12" value="&lt;span style=&quot;text-align: left;&quot;&gt;21 Savage&lt;/span&gt;" style="ellipse;whiteSpace=wrap;html=1;aspect=fixed;" vertex="1" parent="1">
          <mxGeometry x="200" y="260" width="80" height="80" as="geometry" />
        </mxCell>
        <mxCell id="v7ccYKFeEBCUr6x54TsF-13" value="&lt;span style=&quot;text-align: left;&quot;&gt;Shakira&lt;/span&gt;" style="ellipse;whiteSpace=wrap;html=1;aspect=fixed;" vertex="1" parent="1">
          <mxGeometry x="80" y="260" width="80" height="80" as="geometry" />
        </mxCell>
        <mxCell id="v7ccYKFeEBCUr6x54TsF-14" value="&lt;span style=&quot;text-align: left;&quot;&gt;Rihanna&lt;/span&gt;" style="ellipse;whiteSpace=wrap;html=1;aspect=fixed;" vertex="1" parent="1">
          <mxGeometry x="440" y="260" width="80" height="80" as="geometry" />
        </mxCell>
        <mxCell id="v7ccYKFeEBCUr6x54TsF-15" value="&lt;span style=&quot;text-align: left;&quot;&gt;Camila Cabello&lt;/span&gt;" style="ellipse;whiteSpace=wrap;html=1;aspect=fixed;" vertex="1" parent="1">
          <mxGeometry x="560" y="260" width="80" height="80" as="geometry" />
        </mxCell>
        <mxCell id="v7ccYKFeEBCUr6x54TsF-16" value="&lt;span style=&quot;text-align: left;&quot;&gt;Eminem&lt;/span&gt;" style="ellipse;whiteSpace=wrap;html=1;aspect=fixed;" vertex="1" parent="1">
          <mxGeometry x="440" y="140" width="80" height="80" as="geometry" />
        </mxCell>
        <mxCell id="v7ccYKFeEBCUr6x54TsF-37" style="edgeStyle=orthogonalEdgeStyle;rounded=0;orthogonalLoop=1;jettySize=auto;html=1;" edge="1" parent="1" source="v7ccYKFeEBCUr6x54TsF-17" target="v7ccYKFeEBCUr6x54TsF-15">
          <mxGeometry relative="1" as="geometry" />
        </mxCell>
        <mxCell id="v7ccYKFeEBCUr6x54TsF-17" value="&lt;span style=&quot;text-align: left;&quot;&gt;Shawn Mendes&lt;/span&gt;" style="ellipse;whiteSpace=wrap;html=1;aspect=fixed;" vertex="1" parent="1">
          <mxGeometry x="560" y="140" width="80" height="80" as="geometry" />
        </mxCell>
        <mxCell id="v7ccYKFeEBCUr6x54TsF-18" value="1" style="ellipse;whiteSpace=wrap;html=1;aspect=fixed;" vertex="1" parent="1">
          <mxGeometry x="110" y="140" width="20" height="20" as="geometry" />
        </mxCell>
        <mxCell id="v7ccYKFeEBCUr6x54TsF-19" value="3" style="ellipse;whiteSpace=wrap;html=1;aspect=fixed;" vertex="1" parent="1">
          <mxGeometry x="590" y="140" width="20" height="20" as="geometry" />
        </mxCell>
        <mxCell id="v7ccYKFeEBCUr6x54TsF-20" value="4" style="ellipse;whiteSpace=wrap;html=1;aspect=fixed;" vertex="1" parent="1">
          <mxGeometry x="470" y="140" width="20" height="20" as="geometry" />
        </mxCell>
        <mxCell id="v7ccYKFeEBCUr6x54TsF-21" value="5" style="ellipse;whiteSpace=wrap;html=1;aspect=fixed;" vertex="1" parent="1">
          <mxGeometry x="590" y="260" width="20" height="20" as="geometry" />
        </mxCell>
        <mxCell id="v7ccYKFeEBCUr6x54TsF-22" value="6" style="ellipse;whiteSpace=wrap;html=1;aspect=fixed;" vertex="1" parent="1">
          <mxGeometry x="470" y="260" width="20" height="20" as="geometry" />
        </mxCell>
        <mxCell id="v7ccYKFeEBCUr6x54TsF-23" value="7" style="ellipse;whiteSpace=wrap;html=1;aspect=fixed;" vertex="1" parent="1">
          <mxGeometry x="110" y="260" width="20" height="20" as="geometry" />
        </mxCell>
        <mxCell id="v7ccYKFeEBCUr6x54TsF-24" value="8" style="ellipse;whiteSpace=wrap;html=1;aspect=fixed;" vertex="1" parent="1">
          <mxGeometry x="230" y="260" width="20" height="20" as="geometry" />
        </mxCell>
        <mxCell id="v7ccYKFeEBCUr6x54TsF-25" value="9" style="ellipse;whiteSpace=wrap;html=1;aspect=fixed;" vertex="1" parent="1">
          <mxGeometry x="350" y="140" width="20" height="20" as="geometry" />
        </mxCell>
        <mxCell id="v7ccYKFeEBCUr6x54TsF-26" value="10" style="ellipse;whiteSpace=wrap;html=1;aspect=fixed;" vertex="1" parent="1">
          <mxGeometry x="350" y="260" width="20" height="20" as="geometry" />
        </mxCell>
        <mxCell id="v7ccYKFeEBCUr6x54TsF-27" value="11" style="ellipse;whiteSpace=wrap;html=1;aspect=fixed;" vertex="1" parent="1">
          <mxGeometry x="680" y="610" width="20" height="20" as="geometry" />
        </mxCell>
        <mxCell id="v7ccYKFeEBCUr6x54TsF-28" value="12" style="ellipse;whiteSpace=wrap;html=1;aspect=fixed;" vertex="1" parent="1">
          <mxGeometry x="680" y="400" width="20" height="20" as="geometry" />
        </mxCell>
        <mxCell id="v7ccYKFeEBCUr6x54TsF-29" value="13" style="ellipse;whiteSpace=wrap;html=1;aspect=fixed;" vertex="1" parent="1">
          <mxGeometry x="520" y="530" width="20" height="20" as="geometry" />
        </mxCell>
        <mxCell id="v7ccYKFeEBCUr6x54TsF-30" value="14" style="ellipse;whiteSpace=wrap;html=1;aspect=fixed;" vertex="1" parent="1">
          <mxGeometry x="310" y="610" width="20" height="20" as="geometry" />
        </mxCell>
        <mxCell id="v7ccYKFeEBCUr6x54TsF-31" value="15" style="ellipse;whiteSpace=wrap;html=1;aspect=fixed;" vertex="1" parent="1">
          <mxGeometry x="120" y="380" width="20" height="20" as="geometry" />
        </mxCell>
        <mxCell id="v7ccYKFeEBCUr6x54TsF-32" value="16" style="ellipse;whiteSpace=wrap;html=1;aspect=fixed;" vertex="1" parent="1">
          <mxGeometry x="360" y="380" width="20" height="20" as="geometry" />
        </mxCell>
        <mxCell id="v7ccYKFeEBCUr6x54TsF-33" value="17" style="ellipse;whiteSpace=wrap;html=1;aspect=fixed;" vertex="1" parent="1">
          <mxGeometry x="510" y="400" width="20" height="20" as="geometry" />
        </mxCell>
        <mxCell id="v7ccYKFeEBCUr6x54TsF-34" value="2" style="ellipse;whiteSpace=wrap;html=1;aspect=fixed;" vertex="1" parent="1">
          <mxGeometry x="230" y="140" width="20" height="20" as="geometry" />
        </mxCell>
        <mxCell id="v7ccYKFeEBCUr6x54TsF-36" value="" style="endArrow=classic;html=1;rounded=0;exitX=0.5;exitY=1;exitDx=0;exitDy=0;entryX=0.5;entryY=0;entryDx=0;entryDy=0;" edge="1" parent="1" source="v7ccYKFeEBCUr6x54TsF-3" target="v7ccYKFeEBCUr6x54TsF-12">
          <mxGeometry width="50" height="50" relative="1" as="geometry">
            <mxPoint x="400" y="260" as="sourcePoint" />
            <mxPoint x="450" y="210" as="targetPoint" />
          </mxGeometry>
        </mxCell>
        <mxCell id="v7ccYKFeEBCUr6x54TsF-39" value="" style="endArrow=classic;html=1;rounded=0;exitX=0.5;exitY=1;exitDx=0;exitDy=0;entryX=0.5;entryY=0;entryDx=0;entryDy=0;" edge="1" parent="1" source="v7ccYKFeEBCUr6x54TsF-16" target="v7ccYKFeEBCUr6x54TsF-22">
          <mxGeometry width="50" height="50" relative="1" as="geometry">
            <mxPoint x="400" y="260" as="sourcePoint" />
            <mxPoint x="450" y="210" as="targetPoint" />
          </mxGeometry>
        </mxCell>
        <mxCell id="v7ccYKFeEBCUr6x54TsF-42" value="" style="endArrow=classic;html=1;rounded=0;exitX=0;exitY=0.5;exitDx=0;exitDy=0;entryX=0.5;entryY=1;entryDx=0;entryDy=0;" edge="1" parent="1" source="v7ccYKFeEBCUr6x54TsF-9" target="v7ccYKFeEBCUr6x54TsF-7">
          <mxGeometry width="50" height="50" relative="1" as="geometry">
            <mxPoint x="400" y="260" as="sourcePoint" />
            <mxPoint x="450" y="210" as="targetPoint" />
          </mxGeometry>
        </mxCell>
        <mxCell id="v7ccYKFeEBCUr6x54TsF-43" value="" style="endArrow=classic;html=1;rounded=0;exitX=0;exitY=1;exitDx=0;exitDy=0;entryX=1;entryY=0;entryDx=0;entryDy=0;" edge="1" parent="1" source="v7ccYKFeEBCUr6x54TsF-8" target="v7ccYKFeEBCUr6x54TsF-7">
          <mxGeometry width="50" height="50" relative="1" as="geometry">
            <mxPoint x="400" y="260" as="sourcePoint" />
            <mxPoint x="450" y="210" as="targetPoint" />
          </mxGeometry>
        </mxCell>
        <mxCell id="v7ccYKFeEBCUr6x54TsF-44" value="" style="endArrow=classic;html=1;rounded=0;exitX=1;exitY=1;exitDx=0;exitDy=0;entryX=0;entryY=1;entryDx=0;entryDy=0;" edge="1" parent="1" source="v7ccYKFeEBCUr6x54TsF-6" target="v7ccYKFeEBCUr6x54TsF-9">
          <mxGeometry width="50" height="50" relative="1" as="geometry">
            <mxPoint x="400" y="260" as="sourcePoint" />
            <mxPoint x="450" y="210" as="targetPoint" />
          </mxGeometry>
        </mxCell>
        <mxCell id="v7ccYKFeEBCUr6x54TsF-46" value="" style="endArrow=classic;html=1;rounded=0;exitX=-0.012;exitY=0.602;exitDx=0;exitDy=0;entryX=0.5;entryY=0;entryDx=0;entryDy=0;exitPerimeter=0;" edge="1" parent="1" source="v7ccYKFeEBCUr6x54TsF-2" target="v7ccYKFeEBCUr6x54TsF-30">
          <mxGeometry width="50" height="50" relative="1" as="geometry">
            <mxPoint x="400" y="260" as="sourcePoint" />
            <mxPoint x="450" y="210" as="targetPoint" />
          </mxGeometry>
        </mxCell>
        <mxCell id="v7ccYKFeEBCUr6x54TsF-48" value="" style="endArrow=classic;html=1;rounded=0;exitX=0;exitY=1;exitDx=0;exitDy=0;entryX=1;entryY=0;entryDx=0;entryDy=0;" edge="1" parent="1" source="v7ccYKFeEBCUr6x54TsF-15" target="v7ccYKFeEBCUr6x54TsF-4">
          <mxGeometry width="50" height="50" relative="1" as="geometry">
            <mxPoint x="400" y="260" as="sourcePoint" />
            <mxPoint x="450" y="210" as="targetPoint" />
          </mxGeometry>
        </mxCell>
        <mxCell id="v7ccYKFeEBCUr6x54TsF-49" value="" style="endArrow=classic;html=1;rounded=0;exitX=0.5;exitY=1;exitDx=0;exitDy=0;entryX=0.5;entryY=0;entryDx=0;entryDy=0;" edge="1" parent="1" source="v7ccYKFeEBCUr6x54TsF-15" target="v7ccYKFeEBCUr6x54TsF-2">
          <mxGeometry width="50" height="50" relative="1" as="geometry">
            <mxPoint x="400" y="260" as="sourcePoint" />
            <mxPoint x="450" y="210" as="targetPoint" />
          </mxGeometry>
        </mxCell>
        <mxCell id="v7ccYKFeEBCUr6x54TsF-50" value="" style="endArrow=classic;html=1;rounded=0;exitX=1;exitY=0.5;exitDx=0;exitDy=0;entryX=0;entryY=0.5;entryDx=0;entryDy=0;" edge="1" parent="1" source="v7ccYKFeEBCUr6x54TsF-2" target="v7ccYKFeEBCUr6x54TsF-8">
          <mxGeometry width="50" height="50" relative="1" as="geometry">
            <mxPoint x="400" y="260" as="sourcePoint" />
            <mxPoint x="450" y="210" as="targetPoint" />
          </mxGeometry>
        </mxCell>
      </root>
    </mxGraphModel>
  </diagram>
  <diagram id="z7tXccs1BkFtAzZ69I96" name="Page-5">
    <mxGraphModel dx="1141" dy="765" grid="1" gridSize="10" guides="1" tooltips="1" connect="1" arrows="1" fold="1" page="1" pageScale="1" pageWidth="850" pageHeight="1100" math="0" shadow="0">
      <root>
        <mxCell id="0" />
        <mxCell id="1" parent="0" />
        <mxCell id="IoYTjHm12FyaBsNOvwGh-1" value="BeyoncÃ©" style="ellipse;whiteSpace=wrap;html=1;aspect=fixed;" vertex="1" parent="1">
          <mxGeometry x="20" y="160" width="80" height="80" as="geometry" />
        </mxCell>
        <mxCell id="IoYTjHm12FyaBsNOvwGh-2" value="&lt;span style=&quot;text-align: left;&quot;&gt;Doja Cat&lt;/span&gt;" style="ellipse;whiteSpace=wrap;html=1;aspect=fixed;" vertex="1" parent="1">
          <mxGeometry x="560" y="580" width="80" height="80" as="geometry" />
        </mxCell>
        <mxCell id="IoYTjHm12FyaBsNOvwGh-3" value="&lt;span style=&quot;text-align: left;&quot;&gt;Post Malone&lt;/span&gt;" style="ellipse;whiteSpace=wrap;html=1;aspect=fixed;" vertex="1" parent="1">
          <mxGeometry x="180" y="160" width="80" height="80" as="geometry" />
        </mxCell>
        <mxCell id="-8UNr75c4IQ47jrqHG51-38" style="edgeStyle=orthogonalEdgeStyle;rounded=0;orthogonalLoop=1;jettySize=auto;html=1;entryX=0.5;entryY=1;entryDx=0;entryDy=0;exitX=0.5;exitY=1;exitDx=0;exitDy=0;" edge="1" parent="1" source="IoYTjHm12FyaBsNOvwGh-4" target="-8UNr75c4IQ47jrqHG51-2">
          <mxGeometry relative="1" as="geometry">
            <Array as="points">
              <mxPoint x="460" y="720" />
              <mxPoint x="740" y="720" />
            </Array>
          </mxGeometry>
        </mxCell>
        <mxCell id="IoYTjHm12FyaBsNOvwGh-4" value="&lt;span style=&quot;text-align: left;&quot;&gt;N/A&lt;/span&gt;" style="ellipse;whiteSpace=wrap;html=1;aspect=fixed;" vertex="1" parent="1">
          <mxGeometry x="420" y="580" width="80" height="80" as="geometry" />
        </mxCell>
        <mxCell id="IoYTjHm12FyaBsNOvwGh-5" value="&lt;span style=&quot;text-align: left;&quot;&gt;Ed Sheeran&lt;/span&gt;" style="ellipse;whiteSpace=wrap;html=1;aspect=fixed;" vertex="1" parent="1">
          <mxGeometry x="340" y="580" width="80" height="80" as="geometry" />
        </mxCell>
        <mxCell id="IoYTjHm12FyaBsNOvwGh-6" value="&lt;span style=&quot;text-align: left;&quot;&gt;The Weeknd&lt;/span&gt;" style="ellipse;whiteSpace=wrap;html=1;aspect=fixed;" vertex="1" parent="1">
          <mxGeometry x="260" y="580" width="80" height="80" as="geometry" />
        </mxCell>
        <mxCell id="IoYTjHm12FyaBsNOvwGh-7" value="&lt;span style=&quot;text-align: left;&quot;&gt;Lana Del Rey&lt;/span&gt;" style="ellipse;whiteSpace=wrap;html=1;aspect=fixed;" vertex="1" parent="1">
          <mxGeometry x="100" y="580" width="80" height="80" as="geometry" />
        </mxCell>
        <mxCell id="IoYTjHm12FyaBsNOvwGh-8" value="&lt;span style=&quot;text-align: left;&quot;&gt;Miley Cyrus&lt;/span&gt;" style="ellipse;whiteSpace=wrap;html=1;aspect=fixed;" vertex="1" parent="1">
          <mxGeometry x="20" y="580" width="80" height="80" as="geometry" />
        </mxCell>
        <mxCell id="IoYTjHm12FyaBsNOvwGh-9" value="&lt;span style=&quot;text-align: left;&quot;&gt;Ariana Grande&lt;/span&gt;" style="ellipse;whiteSpace=wrap;html=1;aspect=fixed;" vertex="1" parent="1">
          <mxGeometry x="180" y="580" width="80" height="80" as="geometry" />
        </mxCell>
        <mxCell id="IoYTjHm12FyaBsNOvwGh-10" value="&lt;span style=&quot;text-align: left;&quot;&gt;Anderson Paak&lt;/span&gt;" style="ellipse;whiteSpace=wrap;html=1;aspect=fixed;" vertex="1" parent="1">
          <mxGeometry x="740" y="160" width="80" height="80" as="geometry" />
        </mxCell>
        <mxCell id="IoYTjHm12FyaBsNOvwGh-11" value="&lt;span style=&quot;text-align: left;&quot;&gt;Bruno Mars&lt;/span&gt;" style="ellipse;whiteSpace=wrap;html=1;aspect=fixed;" vertex="1" parent="1">
          <mxGeometry x="660" y="160" width="80" height="80" as="geometry" />
        </mxCell>
        <mxCell id="IoYTjHm12FyaBsNOvwGh-12" value="&lt;span style=&quot;text-align: left;&quot;&gt;21 Savage&lt;/span&gt;" style="ellipse;whiteSpace=wrap;html=1;aspect=fixed;" vertex="1" parent="1">
          <mxGeometry x="260" y="160" width="80" height="80" as="geometry" />
        </mxCell>
        <mxCell id="IoYTjHm12FyaBsNOvwGh-13" value="&lt;span style=&quot;text-align: left;&quot;&gt;Shakira&lt;/span&gt;" style="ellipse;whiteSpace=wrap;html=1;aspect=fixed;" vertex="1" parent="1">
          <mxGeometry x="100" y="160" width="80" height="80" as="geometry" />
        </mxCell>
        <mxCell id="IoYTjHm12FyaBsNOvwGh-14" value="&lt;span style=&quot;text-align: left;&quot;&gt;Rihanna&lt;/span&gt;" style="ellipse;whiteSpace=wrap;html=1;aspect=fixed;" vertex="1" parent="1">
          <mxGeometry x="580" y="160" width="80" height="80" as="geometry" />
        </mxCell>
        <mxCell id="-8UNr75c4IQ47jrqHG51-39" style="edgeStyle=orthogonalEdgeStyle;rounded=0;orthogonalLoop=1;jettySize=auto;html=1;exitX=1;exitY=1;exitDx=0;exitDy=0;" edge="1" parent="1" source="IoYTjHm12FyaBsNOvwGh-15" target="-8UNr75c4IQ47jrqHG51-2">
          <mxGeometry relative="1" as="geometry">
            <Array as="points">
              <mxPoint x="488" y="400" />
              <mxPoint x="700" y="400" />
            </Array>
          </mxGeometry>
        </mxCell>
        <mxCell id="IoYTjHm12FyaBsNOvwGh-15" value="&lt;span style=&quot;text-align: left;&quot;&gt;Camila Cabello&lt;/span&gt;" style="ellipse;whiteSpace=wrap;html=1;aspect=fixed;" vertex="1" parent="1">
          <mxGeometry x="420" y="160" width="80" height="80" as="geometry" />
        </mxCell>
        <mxCell id="IoYTjHm12FyaBsNOvwGh-16" value="&lt;span style=&quot;text-align: left;&quot;&gt;Eminem&lt;/span&gt;" style="ellipse;whiteSpace=wrap;html=1;aspect=fixed;" vertex="1" parent="1">
          <mxGeometry x="500" y="160" width="80" height="80" as="geometry" />
        </mxCell>
        <mxCell id="IoYTjHm12FyaBsNOvwGh-17" value="&lt;span style=&quot;text-align: left;&quot;&gt;Shawn Mendes&lt;/span&gt;" style="ellipse;whiteSpace=wrap;html=1;aspect=fixed;" vertex="1" parent="1">
          <mxGeometry x="340" y="160" width="80" height="80" as="geometry" />
        </mxCell>
        <mxCell id="IoYTjHm12FyaBsNOvwGh-18" value="1" style="ellipse;whiteSpace=wrap;html=1;aspect=fixed;" vertex="1" parent="1">
          <mxGeometry x="40" y="160" width="20" height="20" as="geometry" />
        </mxCell>
        <mxCell id="IoYTjHm12FyaBsNOvwGh-19" value="3" style="ellipse;whiteSpace=wrap;html=1;aspect=fixed;" vertex="1" parent="1">
          <mxGeometry x="370" y="160" width="20" height="20" as="geometry" />
        </mxCell>
        <mxCell id="IoYTjHm12FyaBsNOvwGh-20" value="4" style="ellipse;whiteSpace=wrap;html=1;aspect=fixed;" vertex="1" parent="1">
          <mxGeometry x="530" y="160" width="20" height="20" as="geometry" />
        </mxCell>
        <mxCell id="IoYTjHm12FyaBsNOvwGh-21" value="5" style="ellipse;whiteSpace=wrap;html=1;aspect=fixed;" vertex="1" parent="1">
          <mxGeometry x="450" y="160" width="20" height="20" as="geometry" />
        </mxCell>
        <mxCell id="IoYTjHm12FyaBsNOvwGh-22" value="6" style="ellipse;whiteSpace=wrap;html=1;aspect=fixed;" vertex="1" parent="1">
          <mxGeometry x="610" y="160" width="20" height="20" as="geometry" />
        </mxCell>
        <mxCell id="IoYTjHm12FyaBsNOvwGh-23" value="7" style="ellipse;whiteSpace=wrap;html=1;aspect=fixed;" vertex="1" parent="1">
          <mxGeometry x="120" y="160" width="20" height="20" as="geometry" />
        </mxCell>
        <mxCell id="IoYTjHm12FyaBsNOvwGh-24" value="8" style="ellipse;whiteSpace=wrap;html=1;aspect=fixed;" vertex="1" parent="1">
          <mxGeometry x="290" y="160" width="20" height="20" as="geometry" />
        </mxCell>
        <mxCell id="IoYTjHm12FyaBsNOvwGh-25" value="9" style="ellipse;whiteSpace=wrap;html=1;aspect=fixed;" vertex="1" parent="1">
          <mxGeometry x="690" y="160" width="20" height="20" as="geometry" />
        </mxCell>
        <mxCell id="IoYTjHm12FyaBsNOvwGh-26" value="10" style="ellipse;whiteSpace=wrap;html=1;aspect=fixed;" vertex="1" parent="1">
          <mxGeometry x="770" y="160" width="20" height="20" as="geometry" />
        </mxCell>
        <mxCell id="IoYTjHm12FyaBsNOvwGh-27" value="11" style="ellipse;whiteSpace=wrap;html=1;aspect=fixed;" vertex="1" parent="1">
          <mxGeometry x="210" y="580" width="20" height="20" as="geometry" />
        </mxCell>
        <mxCell id="IoYTjHm12FyaBsNOvwGh-28" value="12" style="ellipse;whiteSpace=wrap;html=1;aspect=fixed;" vertex="1" parent="1">
          <mxGeometry x="50" y="580" width="20" height="20" as="geometry" />
        </mxCell>
        <mxCell id="IoYTjHm12FyaBsNOvwGh-29" value="13" style="ellipse;whiteSpace=wrap;html=1;aspect=fixed;" vertex="1" parent="1">
          <mxGeometry x="130" y="580" width="20" height="20" as="geometry" />
        </mxCell>
        <mxCell id="IoYTjHm12FyaBsNOvwGh-30" value="14" style="ellipse;whiteSpace=wrap;html=1;aspect=fixed;" vertex="1" parent="1">
          <mxGeometry x="290" y="580" width="20" height="20" as="geometry" />
        </mxCell>
        <mxCell id="IoYTjHm12FyaBsNOvwGh-31" value="15" style="ellipse;whiteSpace=wrap;html=1;aspect=fixed;" vertex="1" parent="1">
          <mxGeometry x="370" y="580" width="20" height="20" as="geometry" />
        </mxCell>
        <mxCell id="IoYTjHm12FyaBsNOvwGh-32" value="16" style="ellipse;whiteSpace=wrap;html=1;aspect=fixed;" vertex="1" parent="1">
          <mxGeometry x="450" y="580" width="20" height="20" as="geometry" />
        </mxCell>
        <mxCell id="IoYTjHm12FyaBsNOvwGh-33" value="17" style="ellipse;whiteSpace=wrap;html=1;aspect=fixed;" vertex="1" parent="1">
          <mxGeometry x="590" y="580" width="20" height="20" as="geometry" />
        </mxCell>
        <mxCell id="IoYTjHm12FyaBsNOvwGh-34" value="2" style="ellipse;whiteSpace=wrap;html=1;aspect=fixed;" vertex="1" parent="1">
          <mxGeometry x="210" y="160" width="20" height="20" as="geometry" />
        </mxCell>
        <mxCell id="-8UNr75c4IQ47jrqHG51-1" value="&lt;div&gt;&lt;span style=&quot;text-align: left;&quot;&gt;&lt;br&gt;&lt;/span&gt;&lt;/div&gt;&lt;span style=&quot;text-align: left;&quot;&gt;Beautiful Liar&lt;/span&gt;" style="rounded=0;whiteSpace=wrap;html=1;" vertex="1" parent="1">
          <mxGeometry x="40" y="300" width="120" height="60" as="geometry" />
        </mxCell>
        <mxCell id="-8UNr75c4IQ47jrqHG51-2" value="&lt;div&gt;&lt;br&gt;&lt;/div&gt;&lt;div&gt;&lt;span style=&quot;text-align: left;&quot;&gt;Do not Go Yet&lt;/span&gt;&lt;br&gt;&lt;/div&gt;" style="rounded=0;whiteSpace=wrap;html=1;" vertex="1" parent="1">
          <mxGeometry x="680" y="440" width="120" height="60" as="geometry" />
        </mxCell>
        <mxCell id="-8UNr75c4IQ47jrqHG51-3" value="&lt;div&gt;&lt;span style=&quot;text-align: left;&quot;&gt;&lt;br&gt;&lt;/span&gt;&lt;/div&gt;&lt;span style=&quot;text-align: left;&quot;&gt;Rockstar&lt;/span&gt;" style="rounded=0;whiteSpace=wrap;html=1;" vertex="1" parent="1">
          <mxGeometry x="200" y="300" width="120" height="60" as="geometry" />
        </mxCell>
        <mxCell id="-8UNr75c4IQ47jrqHG51-4" value="&lt;div&gt;&lt;br&gt;&lt;/div&gt;&lt;div&gt;&lt;span style=&quot;text-align: left;&quot;&gt;You Right&lt;/span&gt;&lt;br&gt;&lt;/div&gt;" style="rounded=0;whiteSpace=wrap;html=1;" vertex="1" parent="1">
          <mxGeometry x="520" y="440" width="120" height="60" as="geometry" />
        </mxCell>
        <mxCell id="-8UNr75c4IQ47jrqHG51-5" value="&lt;div&gt;&lt;br&gt;&lt;/div&gt;&lt;div&gt;&lt;span style=&quot;text-align: left;&quot;&gt;Bad Habits&lt;/span&gt;&lt;br&gt;&lt;/div&gt;" style="rounded=0;whiteSpace=wrap;html=1;" vertex="1" parent="1">
          <mxGeometry x="360" y="440" width="120" height="60" as="geometry" />
        </mxCell>
        <mxCell id="-8UNr75c4IQ47jrqHG51-6" value="&lt;div&gt;&lt;br&gt;&lt;/div&gt;&lt;div&gt;&lt;span style=&quot;text-align: left;&quot;&gt;Save Your Tears&lt;/span&gt;&lt;br&gt;&lt;/div&gt;" style="rounded=0;whiteSpace=wrap;html=1;" vertex="1" parent="1">
          <mxGeometry x="200" y="440" width="120" height="60" as="geometry" />
        </mxCell>
        <mxCell id="-8UNr75c4IQ47jrqHG51-7" value="&lt;div&gt;&lt;br&gt;&lt;/div&gt;&lt;div&gt;&lt;span style=&quot;text-align: left;&quot;&gt;Do not Call Me Angel&#39;&lt;/span&gt;&lt;br&gt;&lt;/div&gt;" style="rounded=0;whiteSpace=wrap;html=1;" vertex="1" parent="1">
          <mxGeometry x="40" y="440" width="120" height="60" as="geometry" />
        </mxCell>
        <mxCell id="-8UNr75c4IQ47jrqHG51-8" value="&lt;div&gt;&lt;br&gt;&lt;/div&gt;&lt;div&gt;&lt;span style=&quot;text-align: left;&quot;&gt;Leave The Door Open&lt;/span&gt;&lt;br&gt;&lt;/div&gt;" style="rounded=0;whiteSpace=wrap;html=1;" vertex="1" parent="1">
          <mxGeometry x="680" y="300" width="120" height="60" as="geometry" />
        </mxCell>
        <mxCell id="-8UNr75c4IQ47jrqHG51-9" value="&lt;div&gt;&lt;span style=&quot;text-align: left;&quot;&gt;&lt;br&gt;&lt;/span&gt;&lt;/div&gt;&lt;span style=&quot;text-align: left;&quot;&gt;Love The Way You Lie&lt;/span&gt;" style="rounded=0;whiteSpace=wrap;html=1;" vertex="1" parent="1">
          <mxGeometry x="520" y="300" width="120" height="60" as="geometry" />
        </mxCell>
        <mxCell id="-8UNr75c4IQ47jrqHG51-10" value="&lt;div&gt;&lt;span style=&quot;text-align: left;&quot;&gt;&lt;br&gt;&lt;/span&gt;&lt;/div&gt;&lt;span style=&quot;text-align: left;&quot;&gt;Senorita&lt;/span&gt;" style="rounded=0;whiteSpace=wrap;html=1;" vertex="1" parent="1">
          <mxGeometry x="360" y="300" width="120" height="60" as="geometry" />
        </mxCell>
        <mxCell id="-8UNr75c4IQ47jrqHG51-11" value="1" style="rounded=0;whiteSpace=wrap;html=1;" vertex="1" parent="1">
          <mxGeometry x="85" y="300" width="30" height="20" as="geometry" />
        </mxCell>
        <mxCell id="-8UNr75c4IQ47jrqHG51-12" value="2" style="rounded=0;whiteSpace=wrap;html=1;" vertex="1" parent="1">
          <mxGeometry x="245" y="300" width="30" height="20" as="geometry" />
        </mxCell>
        <mxCell id="-8UNr75c4IQ47jrqHG51-13" value="3" style="rounded=0;whiteSpace=wrap;html=1;" vertex="1" parent="1">
          <mxGeometry x="405" y="300" width="30" height="20" as="geometry" />
        </mxCell>
        <mxCell id="-8UNr75c4IQ47jrqHG51-14" value="4" style="rounded=0;whiteSpace=wrap;html=1;" vertex="1" parent="1">
          <mxGeometry x="565" y="300" width="30" height="20" as="geometry" />
        </mxCell>
        <mxCell id="-8UNr75c4IQ47jrqHG51-15" value="5" style="rounded=0;whiteSpace=wrap;html=1;" vertex="1" parent="1">
          <mxGeometry x="725" y="300" width="30" height="20" as="geometry" />
        </mxCell>
        <mxCell id="-8UNr75c4IQ47jrqHG51-16" value="6" style="rounded=0;whiteSpace=wrap;html=1;" vertex="1" parent="1">
          <mxGeometry x="85" y="440" width="30" height="20" as="geometry" />
        </mxCell>
        <mxCell id="-8UNr75c4IQ47jrqHG51-17" value="7" style="rounded=0;whiteSpace=wrap;html=1;" vertex="1" parent="1">
          <mxGeometry x="245" y="440" width="30" height="20" as="geometry" />
        </mxCell>
        <mxCell id="-8UNr75c4IQ47jrqHG51-18" value="8" style="rounded=0;whiteSpace=wrap;html=1;" vertex="1" parent="1">
          <mxGeometry x="405" y="440" width="30" height="20" as="geometry" />
        </mxCell>
        <mxCell id="-8UNr75c4IQ47jrqHG51-19" value="9" style="rounded=0;whiteSpace=wrap;html=1;" vertex="1" parent="1">
          <mxGeometry x="565" y="440" width="30" height="20" as="geometry" />
        </mxCell>
        <mxCell id="-8UNr75c4IQ47jrqHG51-20" value="10" style="rounded=0;whiteSpace=wrap;html=1;" vertex="1" parent="1">
          <mxGeometry x="725" y="440" width="30" height="20" as="geometry" />
        </mxCell>
        <mxCell id="-8UNr75c4IQ47jrqHG51-23" value="" style="endArrow=classic;html=1;rounded=0;exitX=0.5;exitY=1;exitDx=0;exitDy=0;entryX=0.25;entryY=0;entryDx=0;entryDy=0;" edge="1" parent="1" source="IoYTjHm12FyaBsNOvwGh-1" target="-8UNr75c4IQ47jrqHG51-1">
          <mxGeometry width="50" height="50" relative="1" as="geometry">
            <mxPoint x="400" y="260" as="sourcePoint" />
            <mxPoint x="450" y="210" as="targetPoint" />
          </mxGeometry>
        </mxCell>
        <mxCell id="-8UNr75c4IQ47jrqHG51-24" value="" style="endArrow=classic;html=1;rounded=0;exitX=0.5;exitY=1;exitDx=0;exitDy=0;entryX=0.75;entryY=0;entryDx=0;entryDy=0;" edge="1" parent="1" source="IoYTjHm12FyaBsNOvwGh-13" target="-8UNr75c4IQ47jrqHG51-1">
          <mxGeometry width="50" height="50" relative="1" as="geometry">
            <mxPoint x="70" y="250" as="sourcePoint" />
            <mxPoint x="80" y="310" as="targetPoint" />
          </mxGeometry>
        </mxCell>
        <mxCell id="-8UNr75c4IQ47jrqHG51-25" value="" style="endArrow=classic;html=1;rounded=0;exitX=0.5;exitY=1;exitDx=0;exitDy=0;entryX=0.25;entryY=0;entryDx=0;entryDy=0;" edge="1" parent="1" source="IoYTjHm12FyaBsNOvwGh-3" target="-8UNr75c4IQ47jrqHG51-3">
          <mxGeometry width="50" height="50" relative="1" as="geometry">
            <mxPoint x="80" y="260" as="sourcePoint" />
            <mxPoint x="90" y="320" as="targetPoint" />
          </mxGeometry>
        </mxCell>
        <mxCell id="-8UNr75c4IQ47jrqHG51-26" value="" style="endArrow=classic;html=1;rounded=0;exitX=0.5;exitY=1;exitDx=0;exitDy=0;entryX=0.75;entryY=0;entryDx=0;entryDy=0;" edge="1" parent="1" source="IoYTjHm12FyaBsNOvwGh-12" target="-8UNr75c4IQ47jrqHG51-3">
          <mxGeometry width="50" height="50" relative="1" as="geometry">
            <mxPoint x="90" y="270" as="sourcePoint" />
            <mxPoint x="100" y="330" as="targetPoint" />
          </mxGeometry>
        </mxCell>
        <mxCell id="-8UNr75c4IQ47jrqHG51-27" value="" style="endArrow=classic;html=1;rounded=0;exitX=0.5;exitY=1;exitDx=0;exitDy=0;entryX=0.25;entryY=0;entryDx=0;entryDy=0;" edge="1" parent="1" source="IoYTjHm12FyaBsNOvwGh-17" target="-8UNr75c4IQ47jrqHG51-10">
          <mxGeometry width="50" height="50" relative="1" as="geometry">
            <mxPoint x="100" y="280" as="sourcePoint" />
            <mxPoint x="110" y="340" as="targetPoint" />
          </mxGeometry>
        </mxCell>
        <mxCell id="-8UNr75c4IQ47jrqHG51-28" value="" style="endArrow=classic;html=1;rounded=0;exitX=0.5;exitY=1;exitDx=0;exitDy=0;entryX=0.75;entryY=0;entryDx=0;entryDy=0;" edge="1" parent="1" source="IoYTjHm12FyaBsNOvwGh-15" target="-8UNr75c4IQ47jrqHG51-10">
          <mxGeometry width="50" height="50" relative="1" as="geometry">
            <mxPoint x="110" y="290" as="sourcePoint" />
            <mxPoint x="120" y="350" as="targetPoint" />
          </mxGeometry>
        </mxCell>
        <mxCell id="-8UNr75c4IQ47jrqHG51-29" value="" style="endArrow=classic;html=1;rounded=0;exitX=0.5;exitY=1;exitDx=0;exitDy=0;entryX=0.25;entryY=0;entryDx=0;entryDy=0;" edge="1" parent="1" source="IoYTjHm12FyaBsNOvwGh-16" target="-8UNr75c4IQ47jrqHG51-9">
          <mxGeometry width="50" height="50" relative="1" as="geometry">
            <mxPoint x="120" y="300" as="sourcePoint" />
            <mxPoint x="130" y="360" as="targetPoint" />
          </mxGeometry>
        </mxCell>
        <mxCell id="-8UNr75c4IQ47jrqHG51-30" value="" style="endArrow=classic;html=1;rounded=0;exitX=0.5;exitY=1;exitDx=0;exitDy=0;entryX=0.75;entryY=0;entryDx=0;entryDy=0;" edge="1" parent="1" source="IoYTjHm12FyaBsNOvwGh-14" target="-8UNr75c4IQ47jrqHG51-9">
          <mxGeometry width="50" height="50" relative="1" as="geometry">
            <mxPoint x="130" y="310" as="sourcePoint" />
            <mxPoint x="140" y="370" as="targetPoint" />
          </mxGeometry>
        </mxCell>
        <mxCell id="-8UNr75c4IQ47jrqHG51-31" value="" style="endArrow=classic;html=1;rounded=0;exitX=0.5;exitY=1;exitDx=0;exitDy=0;entryX=0.25;entryY=0;entryDx=0;entryDy=0;" edge="1" parent="1" source="IoYTjHm12FyaBsNOvwGh-11" target="-8UNr75c4IQ47jrqHG51-8">
          <mxGeometry width="50" height="50" relative="1" as="geometry">
            <mxPoint x="140" y="320" as="sourcePoint" />
            <mxPoint x="150" y="380" as="targetPoint" />
          </mxGeometry>
        </mxCell>
        <mxCell id="-8UNr75c4IQ47jrqHG51-32" value="" style="endArrow=classic;html=1;rounded=0;exitX=0.5;exitY=1;exitDx=0;exitDy=0;entryX=0.75;entryY=0;entryDx=0;entryDy=0;" edge="1" parent="1" source="IoYTjHm12FyaBsNOvwGh-10" target="-8UNr75c4IQ47jrqHG51-8">
          <mxGeometry width="50" height="50" relative="1" as="geometry">
            <mxPoint x="150" y="330" as="sourcePoint" />
            <mxPoint x="160" y="390" as="targetPoint" />
          </mxGeometry>
        </mxCell>
        <mxCell id="-8UNr75c4IQ47jrqHG51-36" style="edgeStyle=orthogonalEdgeStyle;rounded=0;orthogonalLoop=1;jettySize=auto;html=1;entryX=0.175;entryY=1.05;entryDx=0;entryDy=0;entryPerimeter=0;exitX=0.5;exitY=1;exitDx=0;exitDy=0;" edge="1" parent="1" source="IoYTjHm12FyaBsNOvwGh-6" target="-8UNr75c4IQ47jrqHG51-4">
          <mxGeometry relative="1" as="geometry" />
        </mxCell>
        <mxCell id="-8UNr75c4IQ47jrqHG51-37" style="edgeStyle=orthogonalEdgeStyle;rounded=0;orthogonalLoop=1;jettySize=auto;html=1;exitX=0.5;exitY=0;exitDx=0;exitDy=0;entryX=0.667;entryY=1.05;entryDx=0;entryDy=0;entryPerimeter=0;" edge="1" parent="1" source="IoYTjHm12FyaBsNOvwGh-33" target="-8UNr75c4IQ47jrqHG51-4">
          <mxGeometry relative="1" as="geometry" />
        </mxCell>
        <mxCell id="-8UNr75c4IQ47jrqHG51-40" value="" style="endArrow=classic;html=1;rounded=0;exitX=0.5;exitY=0;exitDx=0;exitDy=0;entryX=0.75;entryY=1;entryDx=0;entryDy=0;" edge="1" parent="1" source="IoYTjHm12FyaBsNOvwGh-32" target="-8UNr75c4IQ47jrqHG51-5">
          <mxGeometry width="50" height="50" relative="1" as="geometry">
            <mxPoint x="400" y="560" as="sourcePoint" />
            <mxPoint x="450" y="510" as="targetPoint" />
          </mxGeometry>
        </mxCell>
        <mxCell id="-8UNr75c4IQ47jrqHG51-41" value="" style="endArrow=classic;html=1;rounded=0;exitX=0.5;exitY=0;exitDx=0;exitDy=0;entryX=0.25;entryY=1;entryDx=0;entryDy=0;" edge="1" parent="1" source="IoYTjHm12FyaBsNOvwGh-5" target="-8UNr75c4IQ47jrqHG51-5">
          <mxGeometry width="50" height="50" relative="1" as="geometry">
            <mxPoint x="470" y="590" as="sourcePoint" />
            <mxPoint x="460" y="510" as="targetPoint" />
          </mxGeometry>
        </mxCell>
        <mxCell id="-8UNr75c4IQ47jrqHG51-42" value="" style="endArrow=classic;html=1;rounded=0;exitX=0.5;exitY=0;exitDx=0;exitDy=0;entryX=0.75;entryY=1;entryDx=0;entryDy=0;" edge="1" parent="1" source="IoYTjHm12FyaBsNOvwGh-30" target="-8UNr75c4IQ47jrqHG51-6">
          <mxGeometry width="50" height="50" relative="1" as="geometry">
            <mxPoint x="480" y="600" as="sourcePoint" />
            <mxPoint x="470" y="520" as="targetPoint" />
          </mxGeometry>
        </mxCell>
        <mxCell id="-8UNr75c4IQ47jrqHG51-43" value="" style="endArrow=classic;html=1;rounded=0;exitX=0.5;exitY=0;exitDx=0;exitDy=0;entryX=0.25;entryY=1;entryDx=0;entryDy=0;" edge="1" parent="1" source="IoYTjHm12FyaBsNOvwGh-27" target="-8UNr75c4IQ47jrqHG51-6">
          <mxGeometry width="50" height="50" relative="1" as="geometry">
            <mxPoint x="310" y="590" as="sourcePoint" />
            <mxPoint x="300" y="510" as="targetPoint" />
          </mxGeometry>
        </mxCell>
        <mxCell id="-8UNr75c4IQ47jrqHG51-44" value="" style="endArrow=classic;html=1;rounded=0;exitX=0;exitY=0;exitDx=0;exitDy=0;entryX=0.75;entryY=1;entryDx=0;entryDy=0;" edge="1" parent="1" source="IoYTjHm12FyaBsNOvwGh-9" target="-8UNr75c4IQ47jrqHG51-7">
          <mxGeometry width="50" height="50" relative="1" as="geometry">
            <mxPoint x="320" y="600" as="sourcePoint" />
            <mxPoint x="310" y="520" as="targetPoint" />
          </mxGeometry>
        </mxCell>
        <mxCell id="-8UNr75c4IQ47jrqHG51-45" value="" style="endArrow=classic;html=1;rounded=0;exitX=0.5;exitY=0;exitDx=0;exitDy=0;entryX=0.5;entryY=1;entryDx=0;entryDy=0;" edge="1" parent="1" source="IoYTjHm12FyaBsNOvwGh-29" target="-8UNr75c4IQ47jrqHG51-7">
          <mxGeometry width="50" height="50" relative="1" as="geometry">
            <mxPoint x="202" y="602" as="sourcePoint" />
            <mxPoint x="140" y="510" as="targetPoint" />
          </mxGeometry>
        </mxCell>
        <mxCell id="-8UNr75c4IQ47jrqHG51-46" value="" style="endArrow=classic;html=1;rounded=0;exitX=0.5;exitY=0;exitDx=0;exitDy=0;entryX=0.25;entryY=1;entryDx=0;entryDy=0;" edge="1" parent="1" source="IoYTjHm12FyaBsNOvwGh-8" target="-8UNr75c4IQ47jrqHG51-7">
          <mxGeometry width="50" height="50" relative="1" as="geometry">
            <mxPoint x="150" y="590" as="sourcePoint" />
            <mxPoint x="110" y="510" as="targetPoint" />
          </mxGeometry>
        </mxCell>
        <mxCell id="poeRdMLDiRzIihpsgUFS-1" value="&lt;span style=&quot;font-size: 20px;&quot;&gt;&lt;b&gt;Performs&lt;/b&gt;&lt;/span&gt;" style="text;html=1;align=center;verticalAlign=middle;whiteSpace=wrap;rounded=0;" vertex="1" parent="1">
          <mxGeometry x="375" y="50" width="105" height="30" as="geometry" />
        </mxCell>
      </root>
    </mxGraphModel>
  </diagram>
  <diagram id="AD2jxGHWl8VkERjwjHxt" name="Page-6">
    <mxGraphModel dx="1141" dy="765" grid="1" gridSize="10" guides="1" tooltips="1" connect="1" arrows="1" fold="1" page="1" pageScale="1" pageWidth="850" pageHeight="1100" math="0" shadow="0">
      <root>
        <mxCell id="0" />
        <mxCell id="1" parent="0" />
        <mxCell id="Viz3OUXTgbXTS-sDpX5K-1" value="&lt;div&gt;&lt;span style=&quot;text-align: left;&quot;&gt;&lt;br&gt;&lt;/span&gt;&lt;/div&gt;&lt;span style=&quot;text-align: left;&quot;&gt;Beautiful Liar&lt;/span&gt;" style="rounded=0;whiteSpace=wrap;html=1;" vertex="1" parent="1">
          <mxGeometry x="40" y="120" width="120" height="60" as="geometry" />
        </mxCell>
        <mxCell id="Viz3OUXTgbXTS-sDpX5K-2" value="&lt;div&gt;&lt;br&gt;&lt;/div&gt;&lt;div&gt;&lt;span style=&quot;text-align: left;&quot;&gt;Do not Go Yet&lt;/span&gt;&lt;br&gt;&lt;/div&gt;" style="rounded=0;whiteSpace=wrap;html=1;" vertex="1" parent="1">
          <mxGeometry x="680" y="500" width="120" height="60" as="geometry" />
        </mxCell>
        <mxCell id="Viz3OUXTgbXTS-sDpX5K-3" value="&lt;div&gt;&lt;span style=&quot;text-align: left;&quot;&gt;&lt;br&gt;&lt;/span&gt;&lt;/div&gt;&lt;span style=&quot;text-align: left;&quot;&gt;Rockstar&lt;/span&gt;" style="rounded=0;whiteSpace=wrap;html=1;" vertex="1" parent="1">
          <mxGeometry x="200" y="120" width="120" height="60" as="geometry" />
        </mxCell>
        <mxCell id="Viz3OUXTgbXTS-sDpX5K-4" value="&lt;div&gt;&lt;br&gt;&lt;/div&gt;&lt;div&gt;&lt;span style=&quot;text-align: left;&quot;&gt;You Right&lt;/span&gt;&lt;br&gt;&lt;/div&gt;" style="rounded=0;whiteSpace=wrap;html=1;" vertex="1" parent="1">
          <mxGeometry x="520" y="500" width="120" height="60" as="geometry" />
        </mxCell>
        <mxCell id="Viz3OUXTgbXTS-sDpX5K-5" value="&lt;div&gt;&lt;br&gt;&lt;/div&gt;&lt;div&gt;&lt;span style=&quot;text-align: left;&quot;&gt;Bad Habits&lt;/span&gt;&lt;br&gt;&lt;/div&gt;" style="rounded=0;whiteSpace=wrap;html=1;" vertex="1" parent="1">
          <mxGeometry x="360" y="500" width="120" height="60" as="geometry" />
        </mxCell>
        <mxCell id="Viz3OUXTgbXTS-sDpX5K-6" value="&lt;div&gt;&lt;br&gt;&lt;/div&gt;&lt;div&gt;&lt;span style=&quot;text-align: left;&quot;&gt;Save Your Tears&lt;/span&gt;&lt;br&gt;&lt;/div&gt;" style="rounded=0;whiteSpace=wrap;html=1;" vertex="1" parent="1">
          <mxGeometry x="200" y="500" width="120" height="60" as="geometry" />
        </mxCell>
        <mxCell id="Viz3OUXTgbXTS-sDpX5K-7" value="&lt;div&gt;&lt;br&gt;&lt;/div&gt;&lt;div&gt;&lt;span style=&quot;text-align: left;&quot;&gt;Do not Call Me Angel&#39;&lt;/span&gt;&lt;br&gt;&lt;/div&gt;" style="rounded=0;whiteSpace=wrap;html=1;" vertex="1" parent="1">
          <mxGeometry x="40" y="500" width="120" height="60" as="geometry" />
        </mxCell>
        <mxCell id="Viz3OUXTgbXTS-sDpX5K-8" value="&lt;div&gt;&lt;br&gt;&lt;/div&gt;&lt;div&gt;&lt;span style=&quot;text-align: left;&quot;&gt;Leave The Door Open&lt;/span&gt;&lt;br&gt;&lt;/div&gt;" style="rounded=0;whiteSpace=wrap;html=1;" vertex="1" parent="1">
          <mxGeometry x="680" y="120" width="120" height="60" as="geometry" />
        </mxCell>
        <mxCell id="Viz3OUXTgbXTS-sDpX5K-9" value="&lt;div&gt;&lt;span style=&quot;text-align: left;&quot;&gt;&lt;br&gt;&lt;/span&gt;&lt;/div&gt;&lt;span style=&quot;text-align: left;&quot;&gt;Love The Way You Lie&lt;/span&gt;" style="rounded=0;whiteSpace=wrap;html=1;" vertex="1" parent="1">
          <mxGeometry x="520" y="120" width="120" height="60" as="geometry" />
        </mxCell>
        <mxCell id="Viz3OUXTgbXTS-sDpX5K-10" value="&lt;div&gt;&lt;span style=&quot;text-align: left;&quot;&gt;&lt;br&gt;&lt;/span&gt;&lt;/div&gt;&lt;span style=&quot;text-align: left;&quot;&gt;Senorita&lt;/span&gt;" style="rounded=0;whiteSpace=wrap;html=1;" vertex="1" parent="1">
          <mxGeometry x="360" y="120" width="120" height="60" as="geometry" />
        </mxCell>
        <mxCell id="Viz3OUXTgbXTS-sDpX5K-11" value="1" style="rounded=0;whiteSpace=wrap;html=1;" vertex="1" parent="1">
          <mxGeometry x="85" y="120" width="30" height="20" as="geometry" />
        </mxCell>
        <mxCell id="Viz3OUXTgbXTS-sDpX5K-12" value="2" style="rounded=0;whiteSpace=wrap;html=1;" vertex="1" parent="1">
          <mxGeometry x="245" y="120" width="30" height="20" as="geometry" />
        </mxCell>
        <mxCell id="Viz3OUXTgbXTS-sDpX5K-13" value="3" style="rounded=0;whiteSpace=wrap;html=1;" vertex="1" parent="1">
          <mxGeometry x="405" y="120" width="30" height="20" as="geometry" />
        </mxCell>
        <mxCell id="Viz3OUXTgbXTS-sDpX5K-14" value="4" style="rounded=0;whiteSpace=wrap;html=1;" vertex="1" parent="1">
          <mxGeometry x="565" y="120" width="30" height="20" as="geometry" />
        </mxCell>
        <mxCell id="Viz3OUXTgbXTS-sDpX5K-15" value="5" style="rounded=0;whiteSpace=wrap;html=1;" vertex="1" parent="1">
          <mxGeometry x="725" y="120" width="30" height="20" as="geometry" />
        </mxCell>
        <mxCell id="Viz3OUXTgbXTS-sDpX5K-16" value="6" style="rounded=0;whiteSpace=wrap;html=1;" vertex="1" parent="1">
          <mxGeometry x="85" y="500" width="30" height="20" as="geometry" />
        </mxCell>
        <mxCell id="Viz3OUXTgbXTS-sDpX5K-17" value="7" style="rounded=0;whiteSpace=wrap;html=1;" vertex="1" parent="1">
          <mxGeometry x="245" y="500" width="30" height="20" as="geometry" />
        </mxCell>
        <mxCell id="Viz3OUXTgbXTS-sDpX5K-18" value="8" style="rounded=0;whiteSpace=wrap;html=1;" vertex="1" parent="1">
          <mxGeometry x="405" y="500" width="30" height="20" as="geometry" />
        </mxCell>
        <mxCell id="Viz3OUXTgbXTS-sDpX5K-19" value="9" style="rounded=0;whiteSpace=wrap;html=1;" vertex="1" parent="1">
          <mxGeometry x="565" y="500" width="30" height="20" as="geometry" />
        </mxCell>
        <mxCell id="Viz3OUXTgbXTS-sDpX5K-20" value="10" style="rounded=0;whiteSpace=wrap;html=1;" vertex="1" parent="1">
          <mxGeometry x="725" y="500" width="30" height="20" as="geometry" />
        </mxCell>
        <mxCell id="VcF6N6saQ7ehEukVFGED-1" value="&lt;span style=&quot;text-align: left;&quot;&gt;Single release&lt;/span&gt;" style="shape=hexagon;perimeter=hexagonPerimeter2;whiteSpace=wrap;html=1;fixedSize=1;" vertex="1" parent="1">
          <mxGeometry x="365" y="360" width="120" height="80" as="geometry" />
        </mxCell>
        <mxCell id="VcF6N6saQ7ehEukVFGED-2" value="&lt;span style=&quot;text-align: left;&quot;&gt;Single release&lt;/span&gt;" style="shape=hexagon;perimeter=hexagonPerimeter2;whiteSpace=wrap;html=1;fixedSize=1;" vertex="1" parent="1">
          <mxGeometry x="680" y="360" width="120" height="80" as="geometry" />
        </mxCell>
        <mxCell id="VcF6N6saQ7ehEukVFGED-3" value="&lt;span style=&quot;text-align: left;&quot;&gt;Planet Her&lt;/span&gt;" style="shape=hexagon;perimeter=hexagonPerimeter2;whiteSpace=wrap;html=1;fixedSize=1;" vertex="1" parent="1">
          <mxGeometry x="520" y="360" width="120" height="80" as="geometry" />
        </mxCell>
        <mxCell id="VcF6N6saQ7ehEukVFGED-4" value="&lt;span style=&quot;text-align: left;&quot;&gt;After Hours&lt;/span&gt;" style="shape=hexagon;perimeter=hexagonPerimeter2;whiteSpace=wrap;html=1;fixedSize=1;" vertex="1" parent="1">
          <mxGeometry x="210" y="360" width="120" height="80" as="geometry" />
        </mxCell>
        <mxCell id="VcF6N6saQ7ehEukVFGED-5" value="&lt;span style=&quot;text-align: left;&quot;&gt;Charlies Angels&lt;/span&gt;" style="shape=hexagon;perimeter=hexagonPerimeter2;whiteSpace=wrap;html=1;fixedSize=1;" vertex="1" parent="1">
          <mxGeometry x="50" y="360" width="120" height="80" as="geometry" />
        </mxCell>
        <mxCell id="VcF6N6saQ7ehEukVFGED-6" value="&lt;span style=&quot;text-align: left;&quot;&gt;An Evening with Silk Sonic&lt;/span&gt;" style="shape=hexagon;perimeter=hexagonPerimeter2;whiteSpace=wrap;html=1;fixedSize=1;" vertex="1" parent="1">
          <mxGeometry x="680" y="240" width="120" height="80" as="geometry" />
        </mxCell>
        <mxCell id="VcF6N6saQ7ehEukVFGED-7" value="&lt;span style=&quot;text-align: left;&quot;&gt;Recovery&lt;/span&gt;" style="shape=hexagon;perimeter=hexagonPerimeter2;whiteSpace=wrap;html=1;fixedSize=1;" vertex="1" parent="1">
          <mxGeometry x="520" y="240" width="120" height="80" as="geometry" />
        </mxCell>
        <mxCell id="VcF6N6saQ7ehEukVFGED-8" value="&lt;span style=&quot;text-align: left;&quot;&gt;Single release&lt;/span&gt;" style="shape=hexagon;perimeter=hexagonPerimeter2;whiteSpace=wrap;html=1;fixedSize=1;" vertex="1" parent="1">
          <mxGeometry x="365" y="240" width="120" height="80" as="geometry" />
        </mxCell>
        <mxCell id="VcF6N6saQ7ehEukVFGED-9" value="&lt;span style=&quot;text-align: left;&quot;&gt;Beerbongs &amp;amp; Bentleys&lt;/span&gt;" style="shape=hexagon;perimeter=hexagonPerimeter2;whiteSpace=wrap;html=1;fixedSize=1;" vertex="1" parent="1">
          <mxGeometry x="210" y="240" width="120" height="80" as="geometry" />
        </mxCell>
        <mxCell id="VcF6N6saQ7ehEukVFGED-10" value="&lt;span style=&quot;text-align: left;&quot;&gt;BDay Deluxe Edition&lt;/span&gt;" style="shape=hexagon;perimeter=hexagonPerimeter2;whiteSpace=wrap;html=1;fixedSize=1;" vertex="1" parent="1">
          <mxGeometry x="50" y="240" width="120" height="80" as="geometry" />
        </mxCell>
        <mxCell id="VcF6N6saQ7ehEukVFGED-11" value="1" style="shape=hexagon;perimeter=hexagonPerimeter2;whiteSpace=wrap;html=1;fixedSize=1;size=10;" vertex="1" parent="1">
          <mxGeometry x="95" y="240" width="30" height="20" as="geometry" />
        </mxCell>
        <mxCell id="VcF6N6saQ7ehEukVFGED-12" value="4" style="shape=hexagon;perimeter=hexagonPerimeter2;whiteSpace=wrap;html=1;fixedSize=1;size=10;" vertex="1" parent="1">
          <mxGeometry x="565" y="240" width="30" height="20" as="geometry" />
        </mxCell>
        <mxCell id="VcF6N6saQ7ehEukVFGED-13" value="3" style="shape=hexagon;perimeter=hexagonPerimeter2;whiteSpace=wrap;html=1;fixedSize=1;size=10;" vertex="1" parent="1">
          <mxGeometry x="410" y="240" width="30" height="20" as="geometry" />
        </mxCell>
        <mxCell id="VcF6N6saQ7ehEukVFGED-14" value="2" style="shape=hexagon;perimeter=hexagonPerimeter2;whiteSpace=wrap;html=1;fixedSize=1;size=10;" vertex="1" parent="1">
          <mxGeometry x="255" y="240" width="30" height="20" as="geometry" />
        </mxCell>
        <mxCell id="VcF6N6saQ7ehEukVFGED-15" value="5" style="shape=hexagon;perimeter=hexagonPerimeter2;whiteSpace=wrap;html=1;fixedSize=1;size=10;" vertex="1" parent="1">
          <mxGeometry x="725" y="240" width="30" height="20" as="geometry" />
        </mxCell>
        <mxCell id="VcF6N6saQ7ehEukVFGED-16" value="6" style="shape=hexagon;perimeter=hexagonPerimeter2;whiteSpace=wrap;html=1;fixedSize=1;size=10;" vertex="1" parent="1">
          <mxGeometry x="95" y="360" width="30" height="20" as="geometry" />
        </mxCell>
        <mxCell id="VcF6N6saQ7ehEukVFGED-17" value="7" style="shape=hexagon;perimeter=hexagonPerimeter2;whiteSpace=wrap;html=1;fixedSize=1;size=10;" vertex="1" parent="1">
          <mxGeometry x="255" y="360" width="30" height="20" as="geometry" />
        </mxCell>
        <mxCell id="VcF6N6saQ7ehEukVFGED-18" value="8" style="shape=hexagon;perimeter=hexagonPerimeter2;whiteSpace=wrap;html=1;fixedSize=1;size=10;" vertex="1" parent="1">
          <mxGeometry x="410" y="360" width="30" height="20" as="geometry" />
        </mxCell>
        <mxCell id="VcF6N6saQ7ehEukVFGED-19" value="9" style="shape=hexagon;perimeter=hexagonPerimeter2;whiteSpace=wrap;html=1;fixedSize=1;size=10;" vertex="1" parent="1">
          <mxGeometry x="565" y="360" width="30" height="20" as="geometry" />
        </mxCell>
        <mxCell id="VcF6N6saQ7ehEukVFGED-20" value="10" style="shape=hexagon;perimeter=hexagonPerimeter2;whiteSpace=wrap;html=1;fixedSize=1;size=10;" vertex="1" parent="1">
          <mxGeometry x="725" y="360" width="30" height="20" as="geometry" />
        </mxCell>
        <mxCell id="VcF6N6saQ7ehEukVFGED-25" value="" style="endArrow=classic;html=1;rounded=0;exitX=0.5;exitY=1;exitDx=0;exitDy=0;entryX=0.5;entryY=0;entryDx=0;entryDy=0;" edge="1" parent="1" source="Viz3OUXTgbXTS-sDpX5K-1" target="VcF6N6saQ7ehEukVFGED-11">
          <mxGeometry width="50" height="50" relative="1" as="geometry">
            <mxPoint x="400" y="420" as="sourcePoint" />
            <mxPoint x="450" y="370" as="targetPoint" />
          </mxGeometry>
        </mxCell>
        <mxCell id="VcF6N6saQ7ehEukVFGED-26" value="" style="endArrow=classic;html=1;rounded=0;exitX=0.5;exitY=1;exitDx=0;exitDy=0;entryX=0.5;entryY=0;entryDx=0;entryDy=0;" edge="1" parent="1">
          <mxGeometry width="50" height="50" relative="1" as="geometry">
            <mxPoint x="735" y="180" as="sourcePoint" />
            <mxPoint x="745" y="240" as="targetPoint" />
          </mxGeometry>
        </mxCell>
        <mxCell id="VcF6N6saQ7ehEukVFGED-27" value="" style="endArrow=classic;html=1;rounded=0;exitX=0.5;exitY=1;exitDx=0;exitDy=0;entryX=0.5;entryY=0;entryDx=0;entryDy=0;" edge="1" parent="1">
          <mxGeometry width="50" height="50" relative="1" as="geometry">
            <mxPoint x="570" y="180" as="sourcePoint" />
            <mxPoint x="580" y="240" as="targetPoint" />
          </mxGeometry>
        </mxCell>
        <mxCell id="VcF6N6saQ7ehEukVFGED-28" value="" style="endArrow=classic;html=1;rounded=0;exitX=0.5;exitY=1;exitDx=0;exitDy=0;entryX=0.5;entryY=0;entryDx=0;entryDy=0;" edge="1" parent="1">
          <mxGeometry width="50" height="50" relative="1" as="geometry">
            <mxPoint x="415" y="180" as="sourcePoint" />
            <mxPoint x="425" y="240" as="targetPoint" />
          </mxGeometry>
        </mxCell>
        <mxCell id="VcF6N6saQ7ehEukVFGED-29" value="" style="endArrow=classic;html=1;rounded=0;exitX=0.5;exitY=1;exitDx=0;exitDy=0;entryX=0.5;entryY=0;entryDx=0;entryDy=0;" edge="1" parent="1">
          <mxGeometry width="50" height="50" relative="1" as="geometry">
            <mxPoint x="260" y="180" as="sourcePoint" />
            <mxPoint x="270" y="240" as="targetPoint" />
          </mxGeometry>
        </mxCell>
        <mxCell id="VcF6N6saQ7ehEukVFGED-32" value="" style="endArrow=classic;html=1;rounded=0;exitX=0.5;exitY=0;exitDx=0;exitDy=0;entryX=0.5;entryY=1;entryDx=0;entryDy=0;" edge="1" parent="1" source="Viz3OUXTgbXTS-sDpX5K-18" target="VcF6N6saQ7ehEukVFGED-1">
          <mxGeometry width="50" height="50" relative="1" as="geometry">
            <mxPoint x="400" y="420" as="sourcePoint" />
            <mxPoint x="450" y="370" as="targetPoint" />
          </mxGeometry>
        </mxCell>
        <mxCell id="VcF6N6saQ7ehEukVFGED-33" value="" style="endArrow=classic;html=1;rounded=0;exitX=0.5;exitY=0;exitDx=0;exitDy=0;entryX=0.5;entryY=1;entryDx=0;entryDy=0;" edge="1" parent="1">
          <mxGeometry width="50" height="50" relative="1" as="geometry">
            <mxPoint x="97.5" y="500" as="sourcePoint" />
            <mxPoint x="102.5" y="440" as="targetPoint" />
          </mxGeometry>
        </mxCell>
        <mxCell id="VcF6N6saQ7ehEukVFGED-34" value="" style="endArrow=classic;html=1;rounded=0;exitX=0.5;exitY=0;exitDx=0;exitDy=0;entryX=0.5;entryY=1;entryDx=0;entryDy=0;" edge="1" parent="1">
          <mxGeometry width="50" height="50" relative="1" as="geometry">
            <mxPoint x="257.5" y="500" as="sourcePoint" />
            <mxPoint x="262.5" y="440" as="targetPoint" />
          </mxGeometry>
        </mxCell>
        <mxCell id="VcF6N6saQ7ehEukVFGED-35" value="" style="endArrow=classic;html=1;rounded=0;exitX=0.5;exitY=0;exitDx=0;exitDy=0;entryX=0.5;entryY=1;entryDx=0;entryDy=0;" edge="1" parent="1">
          <mxGeometry width="50" height="50" relative="1" as="geometry">
            <mxPoint x="737.5" y="500" as="sourcePoint" />
            <mxPoint x="742.5" y="440" as="targetPoint" />
          </mxGeometry>
        </mxCell>
        <mxCell id="VcF6N6saQ7ehEukVFGED-36" value="" style="endArrow=classic;html=1;rounded=0;exitX=0.5;exitY=0;exitDx=0;exitDy=0;entryX=0.5;entryY=1;entryDx=0;entryDy=0;" edge="1" parent="1">
          <mxGeometry width="50" height="50" relative="1" as="geometry">
            <mxPoint x="577.5" y="500" as="sourcePoint" />
            <mxPoint x="582.5" y="440" as="targetPoint" />
          </mxGeometry>
        </mxCell>
        <mxCell id="WdeRdU4kKDWCN2q0E4aO-1" value="&lt;span style=&quot;font-size: 20px;&quot;&gt;&lt;b&gt;IncludedIn&lt;/b&gt;&lt;/span&gt;" style="text;html=1;align=center;verticalAlign=middle;whiteSpace=wrap;rounded=0;" vertex="1" parent="1">
          <mxGeometry x="375" y="50" width="105" height="30" as="geometry" />
        </mxCell>
      </root>
    </mxGraphModel>
  </diagram>
</mxfile>
